<svg width="33" height="24" viewBox="0 0 33 24" fill="none" xmlns="http://www.w3.org/2000/svg">
<path fill-rule="evenodd" clip-rule="evenodd" d="M20.8 23.0608C21.3857 23.6466 21.4747 23.6463 22.0605 23.0605L32.0608 13.4999C32.6466 12.9141 32.6463 11.5251 32.0605 10.9393L22.0605 0.939257C21.4747 0.353457 21.3857 0.372951 20.8 0.958751C20.2142 1.54455 21.1742 2.2931 21.76 2.8789L30.4 11.9986H12.16C10.7334 11.9986 4.81344 12.2163 3.03984 10.9393C1.34284 9.71746 1.59985 5.51106 1.59985 1.99986C1.59985 1.17146 1.82825 0.499857 0.999854 0.499857C0.171454 0.499857 0.160001 1.0902 0.160001 1.9186C0.160001 6.4074 -0.389756 10.7004 2.07984 12.4786C4.47284 14.2016 9.09305 13.4999 10.9998 13.4999H30.4L21.2798 21.4315C20.694 22.0173 20.2142 22.475 20.8 23.0608Z" fill="black"/>
</svg>
