<svg width="29" height="28" viewBox="0 0 29 28" fill="none" xmlns="http://www.w3.org/2000/svg">
<path d="M23.9836 6.29922C23.9836 7.45898 23.0433 8.39922 21.8836 8.39922C20.7238 8.39922 19.7836 7.45898 19.7836 6.29922C19.7836 5.13942 20.7238 4.19922 21.8836 4.19922C23.0433 4.19922 23.9836 5.13942 23.9836 6.29922Z" fill="black"/>
<path fill-rule="evenodd" clip-rule="evenodd" d="M14.1836 21C18.0496 21 21.1836 17.866 21.1836 14C21.1836 10.134 18.0496 7 14.1836 7C10.3176 7 7.18359 10.134 7.18359 14C7.18359 17.866 10.3176 21 14.1836 21ZM14.1836 18.2C16.5033 18.2 18.3836 16.3197 18.3836 14C18.3836 11.6803 16.5033 9.8 14.1836 9.8C11.8639 9.8 9.98359 11.6803 9.98359 14C9.98359 16.3197 11.8639 18.2 14.1836 18.2Z" fill="black"/>
<path fill-rule="evenodd" clip-rule="evenodd" d="M0.183594 13.44C0.183594 8.73558 0.183594 6.3833 1.09914 4.58648C1.90447 3.00591 3.18951 1.72088 4.77008 0.915544C6.56689 3.33786e-07 8.91917 0 13.6236 0H14.7436C19.448 0 21.8003 3.33786e-07 23.5971 0.915544C25.1777 1.72088 26.4627 3.00591 27.268 4.58648C28.1836 6.3833 28.1836 8.73558 28.1836 13.44V14.56C28.1836 19.2644 28.1836 21.6167 27.268 23.4135C26.4627 24.9941 25.1777 26.2791 23.5971 27.0844C21.8003 28 19.448 28 14.7436 28H13.6236C8.91917 28 6.56689 28 4.77008 27.0844C3.18951 26.2791 1.90447 24.9941 1.09914 23.4135C0.183594 21.6167 0.183594 19.2644 0.183594 14.56V13.44ZM13.6236 2.8H14.7436C17.1421 2.8 18.7724 2.80218 20.0327 2.90514C21.2603 3.00544 21.8881 3.18723 22.326 3.41036C23.3796 3.94726 24.2363 4.80395 24.7732 5.8576C24.9964 6.29552 25.1782 6.92328 25.2785 8.15094C25.3814 9.41122 25.3836 11.0415 25.3836 13.44V14.56C25.3836 16.9585 25.3814 18.5888 25.2785 19.8491C25.1782 21.0767 24.9964 21.7045 24.7732 22.1424C24.2363 23.196 23.3796 24.0527 22.326 24.5896C21.8881 24.8128 21.2603 24.9946 20.0327 25.0949C18.7724 25.1978 17.1421 25.2 14.7436 25.2H13.6236C11.2251 25.2 9.59481 25.1978 8.33453 25.0949C7.10687 24.9946 6.47911 24.8128 6.04119 24.5896C4.98754 24.0527 4.13085 23.196 3.59395 22.1424C3.37082 21.7045 3.18903 21.0767 3.08873 19.8491C2.98578 18.5888 2.98359 16.9585 2.98359 14.56V13.44C2.98359 11.0415 2.98578 9.41122 3.08873 8.15094C3.18903 6.92328 3.37082 6.29552 3.59395 5.8576C4.13085 4.80395 4.98754 3.94726 6.04119 3.41036C6.47911 3.18723 7.10687 3.00544 8.33453 2.90514C9.59481 2.80218 11.2251 2.8 13.6236 2.8Z" fill="black"/>
</svg>
