<svg width="50" height="48" viewBox="0 0 50 48" fill="none" xmlns="http://www.w3.org/2000/svg">
<path d="M23.0979 1.8541C23.6966 0.0114822 26.3034 0.0114799 26.9021 1.8541L31.2864 15.3475C31.5541 16.1716 32.3221 16.7295 33.1885 16.7295H47.3763C49.3138 16.7295 50.1193 19.2087 48.5519 20.3475L37.0737 28.6869C36.3727 29.1962 36.0794 30.0989 36.3472 30.923L40.7314 44.4164C41.3302 46.259 39.2212 47.7913 37.6538 46.6525L26.1756 38.3131C25.4746 37.8038 24.5254 37.8038 23.8244 38.3131L12.3462 46.6525C10.7788 47.7913 8.66985 46.259 9.26855 44.4164L13.6528 30.923C13.9206 30.0989 13.6273 29.1962 12.9263 28.6869L1.4481 20.3475C-0.119326 19.2087 0.686224 16.7295 2.62367 16.7295H16.8115C17.6779 16.7295 18.4459 16.1716 18.7136 15.3475L23.0979 1.8541Z" fill="#FFE600"/>
</svg>
