<svg viewBox="0 0 29 29" fill="none" xmlns="http://www.w3.org/2000/svg">
<path d="M18.4178 0.816406H9.76582C1.86973 0.816406 0 2.68613 0 10.5822V19.2342C0 27.1303 1.86973 29 9.76582 29H18.4178C26.3139 29 28.1836 27.1303 28.1836 19.2342V10.5822C28.1836 2.68613 26.2939 0.816406 18.4178 0.816406ZM22.7537 20.9246H20.7029C19.9271 20.9246 19.6887 20.3082 18.2965 18.8961C17.083 17.7242 16.5463 17.5637 16.2457 17.5637C15.8279 17.5637 15.7084 17.6809 15.7084 18.2598V20.1096C15.7084 20.607 15.549 20.9053 14.2365 20.9053C12.0686 20.9053 9.66211 19.5928 7.97109 17.1459C5.4252 13.5658 4.7291 10.8805 4.7291 10.3238C4.7291 10.0256 4.84629 9.74727 5.4252 9.74727H7.47598C7.99336 9.74727 8.19199 9.98574 8.39063 10.543C9.40488 13.4668 11.0959 16.0326 11.7891 16.0326C12.0475 16.0326 12.167 15.9154 12.167 15.2568V12.2334C12.0873 10.8412 11.3514 10.7217 11.3514 10.2248C11.3514 9.98633 11.55 9.74727 11.8687 9.74727H15.0914C15.5291 9.74727 15.6879 9.98574 15.6879 10.5031V14.5801C15.6879 15.0178 15.8865 15.1766 16.0061 15.1766C16.2645 15.1766 16.4836 15.0172 16.9605 14.5402C18.4324 12.8896 19.4865 10.3438 19.4865 10.3438C19.626 10.0455 19.8645 9.76719 20.3818 9.76719H22.4326C23.049 9.76719 23.1885 10.0854 23.049 10.523C22.7906 11.7166 20.2846 15.2568 20.2846 15.2568C20.066 15.6148 19.9863 15.7742 20.2846 16.1715C20.5031 16.4697 21.2221 17.0861 21.6967 17.6434C22.5721 18.6395 23.2482 19.4732 23.427 20.0498C23.6291 20.6264 23.3303 20.9246 22.7537 20.9246Z" fill="black"/>
</svg>
