<svg width="40" height="40" viewBox="0 0 40 40" fill="none" xmlns="http://www.w3.org/2000/svg">
<path fill-rule="evenodd" clip-rule="evenodd" d="M7.04455 7.0459C7.54845 6.54199 8.36544 6.54199 8.86934 7.0459L20 18.1765L31.1306 7.0459C31.6345 6.54199 32.4515 6.54199 32.9554 7.0459C33.4593 7.5498 33.4593 8.36678 32.9554 8.87069L21.8247 20.0013L32.9554 31.1319C33.4593 31.6358 33.4593 32.4528 32.9554 32.9567C32.4515 33.4606 31.6345 33.4606 31.1306 32.9567L20 21.8261L8.86934 32.9567C8.36544 33.4606 7.54845 33.4606 7.04455 32.9567C6.54065 32.4528 6.54065 31.6358 7.04455 31.1319L18.1752 20.0013L7.04455 8.87069C6.54065 8.36678 6.54065 7.5498 7.04455 7.0459Z" fill="black"/>
</svg>
