<svg  viewBox="0 0 100 100" fill="none" xmlns="http://www.w3.org/2000/svg">
<circle cx="50" cy="50" r="50" fill="#FF5E5E"/>
<path fill-rule="evenodd" clip-rule="evenodd" d="M24.5609 24.5595C25.5309 23.5895 27.1036 23.5895 28.0736 24.5595L49.5 45.986L70.9265 24.5595C71.8965 23.5895 73.4692 23.5895 74.4392 24.5595C75.4092 25.5296 75.4092 27.1023 74.4392 28.0723L53.0128 49.4987L74.4392 70.9251C75.4092 71.8951 75.4092 73.4678 74.4392 74.4379C73.4692 75.4079 71.8965 75.4079 70.9265 74.4379L49.5 53.0114L28.0736 74.4379C27.1036 75.4079 25.5309 75.4079 24.5609 74.4379C23.5909 73.4678 23.5909 71.8951 24.5609 70.9251L45.9873 49.4987L24.5609 28.0723C23.5909 27.1023 23.5909 25.5296 24.5609 24.5595Z" fill="white"/>
</svg>
