<svg width="640" height="846" viewBox="0 0 640 846" fill="none" xmlns="http://www.w3.org/2000/svg">
<path fill-rule="evenodd" clip-rule="evenodd" d="M191.172 0.292265C173.081 1.98505 152.798 7.20859 135.197 14.7078C129.179 17.2717 110.182 26.449 105.377 29.113C92.7704 36.1032 78.3427 46.8316 63.6327 60.1544C60.4087 63.0748 58.192 64.7276 56.7658 65.2753C47.4115 68.8675 36.1189 77.8743 30.6688 86.09C27.9749 90.1504 25.0698 96.7767 23.6908 102.005C23.0359 104.489 22.0466 106.986 21.2059 108.279C9.68159 125.994 2.70832 148.14 0.346982 174.524C-0.334123 182.136 0.045702 203.617 0.980022 210.293C3.65337 229.397 7.36876 245.46 13.1631 262.967C17.1098 274.892 20.1278 282.196 25.9474 293.904L31.3186 304.711L30.2345 308.723C28.0847 316.68 26.8397 326.062 25.9114 341.3C25.1444 353.887 24.6921 359.033 23.6646 366.857C22.6852 374.318 22.702 388.769 23.7003 396.71C25.6509 412.23 25.8607 414.823 25.8577 423.341C25.8552 430.663 25.6938 432.978 24.9007 437.086C22.2179 450.978 22.0788 452.554 22.0604 469.3C22.0406 486.786 22.375 490.354 25.0105 500.808C28.7409 515.604 34.5306 525.486 46.4621 537.423C53.6654 544.63 57.5122 547.725 70.3459 556.638C75.6685 560.335 81.9452 564.973 84.2941 566.946C100.605 580.648 110.81 597.744 113.501 615.872C114.132 620.131 114.173 622.715 113.841 637.462C113.218 665.168 113.337 677.93 114.271 683.195C115.795 691.791 118.108 697.099 122.044 701.033C127.304 706.291 132.854 707.815 148.65 708.335C162.631 708.797 169.355 709.64 191.997 713.771C224.388 719.681 231.295 720.695 242.907 721.242L248.753 721.518L247.256 726.524C243.725 738.337 237.899 753.993 232.737 765.541C219.845 794.384 204.961 817.455 183.049 842.564C180.892 845.034 180.405 845.822 180.957 845.943C181.799 846.127 184.081 843.76 190.692 835.846C217.151 804.169 237.303 766.257 249.522 725.167C250.142 723.086 250.874 721.321 251.15 721.247C251.427 721.172 253.198 720.905 255.086 720.654C258.895 720.147 265.205 718.416 268.176 717.064C271.382 715.604 269.416 715.715 264.242 717.285C259.168 718.824 253.564 719.911 252.034 719.653C251.157 719.505 251.164 719.431 252.551 714.412C253.324 711.613 254.025 709.254 254.109 709.17C254.192 709.087 255.702 709.395 257.463 709.855C262.725 711.231 275.727 713.656 281.695 714.375C294.766 715.949 309.941 715.618 322.467 713.486C342.311 710.108 357.545 703.587 379.977 688.87C383.754 686.392 393.12 680.606 400.792 676.011C416.332 666.703 433.32 655.549 440.491 649.945C473.269 624.33 491.538 596.99 507.245 550.052C511.691 536.764 513.504 530.8 520.977 504.881C524.019 494.33 527.25 483.409 528.158 480.613L529.808 475.529L540.513 475.737C546.401 475.851 553.923 475.948 557.227 475.952L563.236 475.958L563.37 477.119C563.487 478.138 563.226 478.418 561.224 479.422C557.554 481.26 552.239 484.941 549.685 487.412C536.698 499.978 531.321 525.935 535.989 553.532C537.146 560.368 538.444 565.173 542.402 577.269C546.66 590.28 546.471 589.503 547.748 599.234C550.666 621.466 553.408 652.579 555.298 684.926C555.898 695.195 557.658 716.453 558.747 726.59C561.339 750.714 563.853 760.586 573.13 783.074C583.092 807.224 584.688 813.616 584.657 829.248C584.643 836.297 584.492 838.268 583.702 841.685C583.186 843.918 582.763 845.802 582.763 845.872C582.763 845.942 583.215 846 583.768 846C584.632 846 584.841 845.683 585.263 843.745C586.498 838.064 586.728 834.811 586.495 826.242C586.083 811.056 584.683 805.474 575.665 783.074C563.954 753.986 562.37 746.511 558.959 704.254C557.967 691.972 557.707 688.151 556.555 669.033C555.063 644.261 550.054 594.555 548.398 588.079C548.154 587.127 546.337 581.516 544.361 575.61C542.384 569.704 540.28 562.938 539.685 560.576C537.048 550.11 535.689 538.08 536.133 529.125C537.088 509.858 542.479 495.624 551.867 487.588C554.278 485.524 560.331 481.896 563.021 480.903C563.847 480.598 566.847 479.229 569.687 477.863C574.555 475.52 575.169 475.337 580.417 474.675C609.008 471.065 629.456 460.487 637.001 445.403C639.437 440.534 640.035 437.932 639.998 432.361C639.971 428.089 639.612 425.674 637.343 414.49C635.9 407.379 634.184 397.908 633.529 393.443L632.339 385.327L632.329 353.756C632.318 320.099 632.299 319.744 630.117 312.092C628.4 306.066 624.503 299.595 620.429 296.001C617.782 293.665 612.461 290.929 608.514 289.874C605.118 288.966 593.912 288.847 591.022 289.689L589.194 290.22L584.107 286.77C578.521 282.981 573.809 278.399 570.834 273.863C561.672 259.894 551.366 229.348 549.241 209.863C548.632 204.277 549.011 191.305 549.931 186.239C550.296 184.231 550.715 180.134 550.863 177.135C551.334 167.577 549.69 163.216 542.882 155.97C540.293 153.214 538.191 150.537 537.55 149.179C533.68 140.976 535.383 126.061 543.35 98.3995C544.779 93.4384 546.311 87.6397 546.754 85.5136C547.729 80.833 547.801 74.792 546.923 71.3218C546.046 67.8594 543.34 62.5018 540.715 59.0321C534.686 51.0651 522.634 42.3018 513.099 38.9532C501.902 35.0204 476.216 30.2508 452.508 27.7016C440.246 26.3833 409.546 26.0157 400.116 27.0744C380.996 29.2212 366.884 28.808 340.922 25.3426C296.496 19.4125 279.333 16.0694 248.452 7.33058C238.915 4.63183 228.62 2.17232 222.254 1.07143C217.939 0.325337 214.79 0.119592 206.16 0.0190818C200.259 -0.0496433 193.514 0.0732036 191.172 0.292265ZM220.983 2.13324C229.161 3.46994 234.812 4.81094 249.325 8.86057C267.757 14.0034 282.726 17.5689 296.073 19.9949C302.356 21.137 330.369 25.2631 344.355 27.1067C367.239 30.1224 383.228 30.4974 399.934 28.4094C414.52 26.5865 441.013 27.3871 463.696 30.3359C479.946 32.4487 501.405 36.5967 510.232 39.3316C520.733 42.5853 532.327 50.304 538.716 58.2954C543.149 63.842 545.397 68.657 546.315 74.5734C546.928 78.5324 546.091 84.2722 543.715 92.3861C538.554 110.016 535.61 122.078 534.886 128.555L534.589 131.221L533.522 129.629C531.474 126.576 524.145 117.718 519.421 112.588C506.838 98.9261 490.391 85.9332 452.611 59.8112C439.646 50.8473 427.705 46.4588 410.309 44.2647C405.863 43.7038 402.422 43.5899 394.858 43.7532C384.211 43.983 380.206 44.5938 372.681 47.1349C368.004 48.7138 357.921 53.5078 352.929 56.5262L349.281 58.7314L341.239 57.4239C324.463 54.6964 323.484 54.613 308.09 54.6001C295.02 54.589 293.204 54.6766 288.133 55.5653C271.674 58.4483 255.618 64.3991 245.024 71.543C234.676 78.5208 223.679 88.9597 214.956 100.084C193.838 127.017 188.187 133.427 177.834 142.19C162.713 154.988 145.567 164.1 117.862 174.059C115.327 174.97 113.251 175.957 113.248 176.252C113.24 177.124 114.127 176.909 120.604 174.471C143.067 166.016 156.327 159.593 167.963 151.53C180.295 142.985 192.742 130.587 205.951 113.69C225.075 89.2273 230.533 83.5175 244.051 73.8333C257.369 64.293 277.191 57.5111 297.146 55.6684C308.718 54.5997 323.922 55.619 341.068 58.6137L347.667 59.7661L344.422 62.2535C339.84 65.7658 334.354 71.6934 331.064 76.6871C329.518 79.0345 328.137 81.256 327.996 81.6237C327.791 82.1589 326.982 82.2921 323.938 82.2921C317.765 82.2921 309.14 84.3392 303.583 87.1234C296.986 90.4291 288.493 97.769 283.937 104.102C276.443 114.519 272.888 126.107 271.654 144.145C270.962 154.265 270.004 183.753 269.843 199.876C269.808 203.479 269.689 206.427 269.58 206.427C269.47 206.427 268.482 205.631 267.383 204.658C257.981 196.332 234.95 185.303 215.602 179.861C210.193 178.339 200.05 176.159 196.352 175.724C194.971 175.561 193.426 175.354 192.919 175.265C184.836 173.836 153.147 172.889 142.066 173.745C125.483 175.025 111.09 179.134 104.26 184.537L101.969 186.35L98.4862 186.275C96.5703 186.235 94.5682 186.092 94.0373 185.959C93.5026 185.824 93.0717 185.914 93.0717 186.16C93.0717 186.41 94.7566 186.736 96.9321 186.906L100.793 187.208L97.0394 191.157C93.0682 195.336 78.9951 214.326 75.1973 220.631C70.8209 227.896 68.103 235.748 66.7116 245.144C65.8451 250.994 65.3361 286.909 66.021 293.852C66.5631 299.342 67.9266 307.47 68.8459 310.691C69.9866 314.688 70.3579 320.901 69.6553 324.243C68.5519 329.493 64.6421 340.011 63.794 340.011C63.0752 340.011 47.814 324.445 44.8441 320.682C41.2433 316.12 37.1764 310.387 34.8615 306.61L33.0876 303.716L34.0675 301.139C34.6061 299.721 36.1455 296.242 37.488 293.407C57.3186 251.541 60.8499 222.183 50.1067 188.508C47.6218 180.718 44.5351 173.441 36.2103 155.742C25.9122 133.847 23.3715 125.697 23.3552 114.507C23.3445 107.212 23.4084 107.013 27.6414 101.127C35.0653 90.8058 44.3557 80.1148 53.3727 71.5177C72.9497 52.8528 85.9151 42.416 100.797 33.3448C105.348 30.5704 120.669 22.8285 129.748 18.7149C151.94 8.66084 170.828 3.59623 194.358 1.39058C198.795 0.974791 217.002 1.4825 220.983 2.13324ZM411.521 45.5542C419.29 46.686 424.844 47.9433 430.74 49.9049C440.672 53.2085 444.293 55.3119 463.881 69.1553C484.436 83.6812 491.378 88.7686 497.572 93.8452C511.035 104.879 523.109 117.235 531.404 128.467L534.259 132.333L534.27 137.272C534.283 142.939 535.012 146.969 536.589 150.084C537.195 151.28 539.621 154.314 541.981 156.825C548.628 163.901 550.068 167.796 549.574 177.365C549.425 180.237 548.975 184.521 548.574 186.883C547.529 193.037 547.534 209.339 548.583 215.017C552.528 236.371 561.64 261.898 569.859 274.625C572.36 278.498 577.541 283.716 581.966 286.821C584.099 288.317 586.144 289.752 586.51 290.009C587.043 290.384 586.328 290.767 582.931 291.929C573.293 295.224 559.481 303.233 545.673 313.534L540.573 317.338L540.862 315.037C542.411 302.673 541.376 296.343 534.411 275.581L530.736 264.628L531.247 260.333C531.528 257.971 532.41 252.075 533.205 247.232C535.747 231.769 536.014 224.277 534.454 212.167C531.337 187.968 517.478 151.277 504.061 131.704C495.844 119.717 480.652 108.974 445.856 90.5442C439.6 87.2308 431.199 82.6524 427.186 80.3695C418.044 75.1687 409.003 70.7222 404.092 69.0109C399.008 67.24 393.933 66.2602 381.771 64.7023C374.006 63.7075 355.428 60.4169 351.687 59.374C351.113 59.2142 356.565 55.8527 361.522 53.3103C370.067 48.9282 377.902 46.3622 386.53 45.1204C391.707 44.3751 405.013 44.6062 411.521 45.5542ZM360.191 62.3347C365.644 63.4068 374.258 64.8608 379.333 65.5661C393.057 67.4732 396.339 68.0389 400.441 69.2047C406.703 70.9846 413.932 74.3234 424.171 80.1663C434.225 85.9036 441.469 89.8634 451.22 94.9517C458.37 98.6826 471.336 106.085 477.4 109.898C485.844 115.207 490.615 118.869 495.676 123.927C502.073 130.322 506.046 136.306 512.317 148.994C526.308 177.3 533.904 204.334 533.947 225.971C533.962 233.168 533.507 236.924 530.851 251.528C530.142 255.426 529.551 259.195 529.538 259.904L529.515 261.192L528.902 260.118C528.565 259.528 527.676 257.208 526.926 254.964C524.774 248.527 522.341 244.028 517.031 236.67C515.652 234.759 514.524 232.901 514.524 232.542C514.524 231.588 509.192 223.636 505.221 218.668C499.596 211.631 491.71 204.644 481.905 198.01C475.993 194.01 472.009 191.69 460.179 185.357C427.669 167.957 417.271 158.558 401.994 132.762C390.797 113.856 388.511 110.115 385.856 106.356C378.526 95.9782 370.678 90.2723 357.811 85.9646C352.247 84.1017 347.644 83.3513 337.645 82.6774C333.31 82.3853 329.69 82.0898 329.6 82.0206C329.048 81.5945 335.888 72.4695 339.399 68.9482C343.211 65.1263 349.005 60.3997 349.891 60.3902C350.102 60.3877 354.737 61.263 360.191 62.3347ZM49.6389 73.4042C42.2201 80.8325 37.3593 86.4087 29.6075 96.3824C26.9813 99.762 24.8324 102.334 24.8324 102.1C24.8324 101.175 27.1774 95.1918 28.9813 91.5124C30.028 89.3781 31.834 86.3623 32.995 84.8109C35.7554 81.122 42.2746 74.9217 46.342 72.1169C49.5393 69.9125 55.6276 66.417 56.2911 66.4054C56.4795 66.402 53.486 69.5517 49.6389 73.4042ZM325.863 86.0505C325.259 87.4091 323.538 92.0961 322.039 96.4666C317.386 110.039 314.65 115.821 304.054 134.48C298.01 145.121 289.085 162.436 285.564 170.346C280.303 182.167 276.233 193.878 272.892 206.804C272.563 208.073 272.264 208.542 271.97 208.248C271.677 207.955 271.689 200.926 272.006 186.61C273.067 138.718 274.687 125.168 280.836 112.718C283.144 108.046 285.014 105.219 288.517 101.11C297.866 90.1435 310.725 83.8195 324.071 83.6232L326.963 83.5807L325.863 86.0505ZM337.488 84.0141C346.403 84.5729 350.26 85.1102 354.806 86.4268C359.207 87.7016 368.739 92.1979 372.876 94.95C379.519 99.3707 385.231 106.965 397.117 127.178C407.603 145.013 412.822 152.323 420.742 160.269C429.639 169.195 438.36 175.089 460.908 187.414C473.027 194.039 479.581 198.068 485.571 202.573C493.121 208.253 500.775 215.592 505.37 221.559L507.265 224.021L503.706 221.9C495.58 217.057 483.991 213.534 470.533 211.814C456.674 210.044 427.142 208.886 420.047 209.836C405.34 211.804 396.324 215.746 388.211 223.755C383.882 228.029 380.814 232.263 374.937 242.078C367.344 254.757 368.024 253.881 363.427 256.914C358.765 259.991 354.171 264.63 351.909 268.546C351.107 269.935 349.933 271.845 349.3 272.79C344.025 280.665 341.133 289.699 339.607 303.072C339.036 308.078 338.941 311.827 339.125 322.186C339.421 338.797 340.584 348.587 346.522 384.468C349.273 401.089 350.475 406.79 353.124 415.758C353.88 418.321 354.431 420.487 354.347 420.57C354.264 420.654 352.991 420.149 351.518 419.447C345.921 416.779 338.159 414.884 329.549 414.084C327.778 413.919 324.978 413.344 323.325 412.805C321.673 412.267 318.918 411.597 317.204 411.316C315.121 410.974 313.962 410.568 313.712 410.092C313.506 409.701 312.905 407.642 312.377 405.517C310.765 399.041 311.266 395.662 316.05 380.741C318.976 371.618 321.599 361.542 322.218 357.054C322.881 352.25 322.79 345.835 322.001 341.669C320.7 334.797 318.917 329.982 312.483 315.958C308.684 307.678 307.633 304.621 305.057 294.366C302.611 284.631 300.595 274.852 298.617 263.125C297.681 257.573 296.435 251.098 295.85 248.736C292.824 236.528 286.105 223.877 277.45 214.089L273.78 209.94L275.436 203.351C280.404 183.581 289.507 162.916 305.963 134.051C311.322 124.651 316.522 114.676 318.581 109.847C319.422 107.875 321.483 102.366 323.161 97.6053C327.279 85.9186 328.358 83.5802 329.629 83.5824C330.175 83.5828 333.712 83.7774 337.488 84.0141ZM22.0629 115.044C22.1041 125.828 24.7226 134.189 34.8087 155.742C47.4891 182.839 51.517 194.349 53.5646 209.34C54.7358 217.914 54.9779 223.819 54.4667 231.346C53.1011 251.453 48.0333 267.794 33.6374 298.51L32.0508 301.895L30.7263 299.584C29.9976 298.313 27.7195 293.794 25.6637 289.541C11.0636 259.339 1.22466 219.056 1.22852 189.499C1.23281 161.011 8.05459 133.067 19.8771 113.111C20.9617 111.28 21.8926 109.783 21.9458 109.783C21.999 109.783 22.0518 112.151 22.0629 115.044ZM168.178 175.93C196.157 177.116 212.208 180.154 232.125 188.036C245.678 193.398 261.885 202.535 267.537 207.998L269.688 210.078L269.468 218.883L269.249 227.689L267.573 224.682C264.138 218.517 260.638 213.899 255.524 208.781C240.066 193.31 221.499 186.7 183.628 183.184C175.577 182.437 170.339 182.239 157.663 182.203C139.164 182.152 134.62 182.586 119.439 185.858C114.091 187.011 113 187.118 109.857 186.806L106.31 186.454L109.025 184.901C116.945 180.374 130.099 176.868 142.536 175.971C149.617 175.461 156.832 175.449 168.178 175.93ZM177.62 183.887C209.925 186.152 229.721 191.334 245.191 201.574C253.839 207.299 263.211 218.02 267.832 227.474L269.407 230.695L269.113 237.909L268.82 245.123L267.401 244.074C266.62 243.496 265.096 241.7 264.013 240.081C260.985 235.554 256.195 229.43 251.886 224.576C241.293 212.645 231.202 206.719 211.887 201.087C195.627 196.345 178.732 193.083 157.448 190.572C146.062 189.23 126.448 187.578 120.754 187.483L117.749 187.432L120.11 186.835C123.913 185.874 134.183 184.12 138.358 183.719C144.896 183.09 167.653 183.188 177.62 183.887ZM108.522 187.957C109.577 188.295 109.574 188.302 108.307 188.355C107.599 188.384 105.722 188.851 104.136 189.392C101.991 190.124 101.386 190.213 101.775 189.741C103.34 187.844 105.986 187.144 108.522 187.957ZM135.989 189.453C165.641 191.989 188.008 195.62 208.52 201.229C228.11 206.584 237.102 211.332 247.595 221.857C253.757 228.04 260.339 235.995 263.222 240.748C263.423 241.08 261.192 239.703 258.264 237.689C247.282 230.133 241.623 227.599 209.379 215.801C205.484 214.376 197.982 211.296 192.707 208.957C177.54 202.231 173.163 200.955 166.762 201.394C161.979 201.722 157.023 204.189 151.654 208.916C145.361 214.456 131.227 229.154 128.851 232.628C122.854 241.397 117.228 255.061 115.172 265.847C114.046 271.753 114.567 275.764 116.907 279.216C117.819 280.561 117.903 280.91 117.409 281.319C116.656 281.942 114.96 286.487 114.96 287.881C114.96 288.461 115.434 289.41 116.013 289.99C117.257 291.235 118.692 291.316 123.741 290.425C127.709 289.726 126.979 289.458 134.058 294.206C153.668 307.359 173.537 315.226 193.951 317.92C201.799 318.956 215.1 318.583 223.657 317.088C234.795 315.142 246.867 311.96 256.284 308.487C261.964 306.392 262.02 306.405 260.494 309.429C257.484 315.397 252.575 319.855 244.786 323.692C238.03 327.02 233.217 328.555 215.173 333.133C198.273 337.421 189.551 339.974 176.761 344.377C140.368 356.906 130.309 359.523 116.462 360.068C104.582 360.536 93.921 358.07 82.0547 352.109L77.6899 349.917L76.9663 347.434C74.1342 337.714 72.1063 325.268 71.3836 313.166C71.045 307.496 70.3772 300.037 69.8991 296.59C67.5373 279.553 67.2871 269.747 68.9733 260.333C73.3055 236.148 80.2487 218.016 91.4747 201.571C96.827 193.73 99.8158 191.537 107.998 189.443C111.922 188.44 112.655 188.389 120.324 188.593C124.809 188.713 131.859 189.099 135.989 189.453ZM175.549 203.439C179.156 204.361 184.927 206.563 190.71 209.224C197.187 212.205 203.166 214.674 211.525 217.82C246.41 230.949 248.545 231.984 264.037 243.301L269.124 247.018L268.851 255.179C268.309 271.381 267.617 280.451 266.247 289.327C265.9 291.571 265.608 293.6 265.598 293.837C265.588 294.073 264.184 292.804 262.479 291.017C252.546 280.609 238.304 270.477 228.263 266.675C221.503 264.115 217.292 263.48 205.516 263.246C191.4 262.965 181.503 264.026 164.177 267.679C152.766 270.085 130.179 276.252 122.787 278.98C118.782 280.458 118.797 280.465 116.924 276.439C115.017 272.338 115.673 266.897 119.435 255.608C122.671 245.899 126.776 237.721 131.615 231.34C134.683 227.294 150.722 211.177 154.42 208.424C162.251 202.595 167.446 201.369 175.549 203.439ZM442.851 211.867L446.929 212.124L444.783 212.869C432.694 217.062 418.911 227.34 408.638 239.823C406.598 242.302 404.608 244.311 404.083 244.42C403.571 244.526 400.856 244.832 398.048 245.101C395.241 245.369 392.635 245.707 392.259 245.851C391.883 245.996 392.498 244.964 393.626 243.559C394.754 242.154 398.21 237.428 401.305 233.058C407.81 223.873 412.755 218.632 417.101 216.316C418.635 215.498 422.111 214.027 424.826 213.047C430.228 211.097 430.429 211.084 442.851 211.867ZM421.714 212.011C419.081 212.804 414.043 215.629 411.468 217.757C408.301 220.375 405.756 223.462 399.386 232.414C394.602 239.137 390.313 244.33 388.148 246.024C387.066 246.869 380.702 248.706 380.265 248.298C380.188 248.226 381.713 245.782 383.655 242.867C398.771 220.181 408.693 212.076 421.822 211.687C422.867 211.656 422.865 211.664 421.714 212.011ZM468.434 213.516C487.273 215.591 500.102 220.374 510.695 229.271C511.731 230.141 512.485 230.942 512.371 231.051C512.257 231.159 510.232 229.989 507.872 228.449C498.288 222.198 490.053 219.4 478.442 218.451C465.775 217.416 449.378 220.793 433.885 227.63C426.231 231.009 421.808 233.956 415.121 240.134C411.656 243.335 410.961 243.796 409.593 243.796H408.028L410.678 240.591C414.27 236.245 422.568 228.257 426.75 225.12C433.945 219.723 441.164 215.92 448.415 213.706C452.231 212.541 452.856 212.472 457.658 212.677C460.491 212.798 465.34 213.176 468.434 213.516ZM81.3783 214.696C79.9908 216.816 76.135 226.312 73.7488 233.487C71.2033 241.142 69.1257 249.002 68.0154 255.179L67.3978 258.615L67.3596 255.093C67.2558 245.624 69.9253 233.894 74.0776 225.571C76.1269 221.463 81.4611 213.133 81.8152 213.488C81.9332 213.606 81.7362 214.149 81.3783 214.696ZM276.34 216.413C283.702 225.216 290.632 238.076 293.465 248.193C293.945 249.909 295.125 255.952 296.087 261.622C298.564 276.217 300.114 283.983 302.523 293.856C305.36 305.483 306.576 309.025 310.801 317.976C317.774 332.749 319.569 338.492 319.974 347.313C320.366 355.877 318.986 362.943 313.081 382.612C308.799 396.87 308.337 401.006 310.342 407.128C310.942 408.96 311.309 410.521 311.157 410.597C311.004 410.673 310.01 410.778 308.948 410.831C303.028 411.125 295.053 415.184 288.675 421.148C287.197 422.531 284.158 424.771 281.923 426.126C279.688 427.482 276.763 429.336 275.423 430.247L272.987 431.902L272.69 430.306C271.525 424.042 265.22 412.127 259.23 404.871C258.158 403.571 253.673 398.932 249.264 394.562C239.194 384.579 235.168 379.187 233.84 373.903C232.719 369.442 234.544 366.989 242.955 361.657C260.987 350.223 272.714 339.203 275.891 330.707C277.197 327.213 277.759 322.306 277.303 318.384C277.093 316.577 277.003 315.098 277.105 315.098C277.206 315.098 278.217 315.781 279.351 316.614C280.68 317.59 281.518 317.962 281.705 317.659C282.018 317.154 281.511 316.685 278.427 314.63C276.904 313.616 276.322 312.895 275.915 311.52C275.624 310.535 274.729 308.301 273.927 306.555C273.125 304.809 272.468 303.284 272.468 303.166C272.468 302.775 277.093 303.491 281.565 304.575C286.497 305.772 287.978 305.873 290.108 305.161C294.114 303.821 295.436 300.783 295.411 292.978C295.383 284.357 293.445 276.715 289.047 267.886C284.824 259.409 281.982 255.887 274.292 249.603L271.18 247.061L271.207 241.885C271.237 236.321 271.514 236.278 272.628 241.664C272.977 243.353 273.399 244.862 273.564 245.017C274.002 245.427 273.412 241.596 272.351 237.138C271.221 232.387 271.172 225.35 272.227 219.249C272.621 216.97 272.974 214.699 273.012 214.202C273.049 213.706 273.227 213.299 273.407 213.299C273.588 213.299 274.907 214.701 276.34 216.413ZM403.796 216.049C403.796 216.144 403.179 216.613 402.425 217.091C400.426 218.357 394.289 224.587 391.217 228.467C389.756 230.313 385.857 235.811 382.552 240.685C376.627 249.423 376.506 249.565 373.865 250.904L371.186 252.26L372.009 250.928C372.462 250.194 374.729 246.459 377.048 242.627C385.839 228.098 391.124 222.409 400.577 217.29C403.034 215.96 403.796 215.666 403.796 216.049ZM480.437 221.073C491.475 222.183 500.827 225.847 508.364 232.014C512.834 235.671 512.782 235.717 506.168 233.956C498.66 231.956 483.651 231.177 472.679 232.218C461.655 233.264 447.204 235.879 425.077 240.832C419.903 241.99 415.598 242.864 415.509 242.775C415.154 242.421 420.998 237.702 424.626 235.413C432.247 230.604 442.047 226.528 452.399 223.861C463.976 220.878 471.279 220.152 480.437 221.073ZM492.421 234.342C500.918 235.012 508.174 236.533 513.298 238.717C515.01 239.448 515.396 239.85 516.031 241.574C516.437 242.678 517.329 244.596 518.011 245.836C519.366 248.298 519.309 248.496 517.594 247.29C513.263 244.24 499.789 240.692 485.57 238.857C482.747 238.492 478.691 237.635 476.558 236.952C474.425 236.269 471.946 235.574 471.05 235.407C470.154 235.239 469.517 235.006 469.635 234.888C469.884 234.638 478.853 234.072 483.838 233.992C485.726 233.961 489.589 234.119 492.421 234.342ZM468.732 237.242L471.821 237.989L461.95 238.258C456.521 238.406 450.63 238.645 448.86 238.79L445.641 239.053L449.895 238.211C458.543 236.501 464.422 236.199 468.732 237.242ZM445.105 239.356C444.81 239.475 444.327 239.475 444.032 239.356C443.737 239.237 443.978 239.139 444.568 239.139C445.158 239.139 445.4 239.237 445.105 239.356ZM475.314 240.814L482.98 241.268L489.417 243.815C492.958 245.215 499.911 248.43 504.868 250.959C509.825 253.488 514.873 256.052 516.086 256.657L518.292 257.756L519.176 261.622C521.48 271.695 522.956 281.268 524.402 295.521C526.021 311.469 526.02 311.474 523.974 322.4C522.544 330.035 521.971 332.274 521.248 333.058C520.38 334 520.369 334.114 521.03 335.267C521.582 336.229 521.647 336.908 521.345 338.529C521.134 339.654 520.565 343.783 520.078 347.703C518.94 356.882 517.706 360.625 505.196 392.844C497.737 412.055 493.937 422.643 491.141 432.008C490.274 434.91 488.972 437.477 485.258 443.605C482.635 447.933 477.523 456.421 473.899 462.466L467.31 473.456L462.484 473.972C436.417 476.758 413.873 484.239 391.798 497.431C376.768 506.412 363.113 517.733 355.053 527.893L353.734 529.556L349.903 526.628C344.655 522.616 339.392 520.241 333.787 519.354C332.299 519.118 332.22 519.018 331.957 517.036C331.806 515.896 331.017 512.987 330.204 510.571C329.391 508.154 328.6 505.068 328.447 503.714C328.097 500.614 329.108 496.357 330.737 494.076L331.909 492.435L337.274 492.298C343.818 492.131 349.314 491.042 356.587 488.471C359.537 487.428 364.817 485.873 368.32 485.016C371.824 484.158 375.229 483.178 375.887 482.837C377.606 481.948 379.231 479.852 379.821 477.764C381.782 470.827 378.016 452.013 372.446 440.921C369.414 434.883 362.668 426.604 358.424 423.712C357.739 423.246 357.244 422.11 356.659 419.659C356.212 417.786 355.134 413.837 354.263 410.884C350.277 397.365 343.006 353.178 341.151 331.206C339.6 312.833 342.068 292.271 347.108 281.595L348.02 279.662L347.803 282.024C347.433 286.042 348.377 293.816 350.567 304.79C353.221 318.09 353.446 319.606 354.203 329.292C354.91 338.337 355.595 342.104 357.706 348.571C363.336 365.815 375.239 381.752 389.792 391.529C394.885 394.951 411.912 404.596 415.496 406.089C423.875 409.58 432.174 411.105 440.872 410.754C451.39 410.327 459.221 407.368 472.035 398.973C483.088 391.734 486.938 388.007 494.766 376.974C509.514 356.186 514.107 346.399 514.77 334.352C515.085 328.613 513.873 328.776 512.603 334.642C512.194 336.532 511.303 339.818 510.623 341.944C509.392 345.794 509.377 345.817 506.812 347.464C499.89 351.909 491.215 352.05 475.684 347.971C468.618 346.116 463.74 344.414 450.362 339.139C421.961 327.94 411.555 325.087 397.548 324.661C391.369 324.473 390.26 324.552 386.819 325.428C384.708 325.965 382.423 326.368 381.74 326.324C379.634 326.187 378.035 328.314 379.59 329.185C380.207 329.531 380.185 329.751 379.367 331.354C378.867 332.336 378.351 333.139 378.221 333.139C377.791 333.139 371.601 327.36 371.713 327.064C371.773 326.903 373.007 325.903 374.454 324.84L377.085 322.907L377.542 323.911L377.998 324.915L382.421 323.479C384.854 322.69 388.907 321.353 391.428 320.509C397.916 318.338 403.161 317.552 411.092 317.56C425.116 317.575 435.997 319.996 458.556 328.12C473.035 333.334 478.111 334.958 484.312 336.361C498.657 339.605 508.595 338.384 511.357 333.039C513.148 329.573 510.592 314.717 506.83 306.723C502.635 297.808 495.306 291.832 483.431 287.64C470.042 282.913 453.993 282.064 439.418 285.31C428.739 287.689 420.793 291.212 404.655 300.725C391.668 308.379 385.772 312.413 377.434 319.347C371.844 323.998 370.041 325.281 369.608 324.92C368.759 324.216 367.606 324.828 367.871 325.842C368.045 326.509 367.881 326.696 367.119 326.696C365.533 326.696 364.098 325.208 362.263 321.66C356.208 309.952 353.55 290.532 356.201 277.37C357.314 271.845 360.363 265.047 362.84 262.568C364.741 260.665 370.145 259.15 409.161 249.581C442.621 241.375 455.648 239.649 475.314 240.814ZM431.147 241.908C431.005 242.051 430.634 242.066 430.325 241.942C429.983 241.805 430.084 241.703 430.584 241.682C431.037 241.664 431.29 241.765 431.147 241.908ZM498.645 243.221C504.356 244.462 512.067 246.92 514.063 248.135C515.392 248.944 516.685 251.184 517.333 253.802L517.631 255.002L515.337 253.648C511.801 251.562 500.208 245.829 495.426 243.801C489.154 241.143 489.118 241.149 498.645 243.221ZM521.337 246.588C522.008 247.533 522.884 248.983 523.283 249.81C523.961 251.215 523.888 251.176 522.163 249.201C521.148 248.04 519.674 245.914 518.886 244.477L517.454 241.863L518.785 243.367C519.518 244.193 520.666 245.643 521.337 246.588ZM404.63 247.878C402.61 248.675 394.305 250.97 386.175 252.98C378.045 254.989 370.239 257.019 368.829 257.491C366.135 258.392 365.262 258.404 366.957 257.515C367.509 257.227 369.747 255.837 371.932 254.428C374.117 253.019 377.069 251.503 378.491 251.06C382.736 249.738 392.98 247.741 398.016 247.253C400.605 247.003 403.399 246.733 404.225 246.654C408.223 246.272 408.279 246.439 404.63 247.878ZM274.206 251.151C280.678 256.295 283.856 260.351 287.713 268.386C292.153 277.634 294.057 285.128 294.079 293.438C294.09 297.633 293.968 298.442 293.044 300.303C291.127 304.161 288.084 304.869 281.091 303.081C279.107 302.575 276.097 302.027 274.403 301.864L271.321 301.568L269.336 299.125L267.351 296.682L267.961 293.112C269.516 284.003 270.751 266.995 270.751 254.686C270.751 251.532 270.906 248.951 271.095 248.951C271.283 248.951 272.684 249.941 274.206 251.151ZM521.927 253.638C523.521 255.181 524.824 256.594 524.824 256.778C524.824 257.304 522.14 257.155 521.036 256.568C520.439 256.252 519.607 254.998 518.972 253.461C518.386 252.043 517.785 250.593 517.637 250.239C517.245 249.302 518.377 250.198 521.927 253.638ZM528.736 265.853C528.716 266.998 528.511 269.511 528.28 271.436C528.049 273.362 527.64 279.769 527.372 285.676C527.103 291.582 526.83 296.471 526.765 296.54C526.699 296.61 526.515 295.16 526.355 293.319C525.722 286.014 524.705 279.239 522.885 270.212C521.837 265.015 520.858 260.334 520.71 259.811C520.451 258.898 520.527 258.87 522.575 259.112C523.805 259.258 525.054 259.169 525.519 258.904C526.235 258.493 526.464 258.741 527.549 261.105C528.392 262.944 528.76 264.415 528.736 265.853ZM358.472 266.883C357.45 268.951 356.088 272.575 355.445 274.937C354.337 279.01 354.276 279.733 354.265 288.897C354.252 300.079 354.966 305.034 357.88 313.983C360.181 321.046 362.069 324.838 364.282 326.835C365.873 328.272 366.326 328.46 367.889 328.338C369.638 328.202 369.759 328.285 373.469 332.131C376.96 335.749 377.221 336.139 376.748 337.023C375.582 339.203 377.234 344.82 380.307 349.128C390.778 363.808 417.379 376.007 449.432 380.83C465.033 383.178 479.127 382.005 487.222 377.687C491.097 375.62 494.745 371.764 496.887 367.47C497.881 365.48 499.339 363.174 500.128 362.347C504.232 358.046 510.033 348.783 511.51 344.17C511.798 343.269 512.112 342.608 512.206 342.702C512.529 343.026 510.207 349.255 508.325 353.112C503.892 362.195 490.098 382.115 484.267 387.854C476.01 395.981 459.089 405.98 449.294 408.52C440.078 410.91 428.814 409.813 417.745 405.447C412.079 403.212 397.938 395.43 390.706 390.568C379.419 382.978 370.196 372.389 363.895 359.784C358.975 349.944 356.554 341.642 355.73 331.787C354.855 321.323 354.362 317.754 352.504 308.441C348.444 288.08 348.255 280.184 351.68 273.886C352.574 272.243 359.795 263.125 360.202 263.125C360.272 263.125 359.493 264.817 358.472 266.883ZM212.106 264.425C222.96 265.307 231.59 268.432 241.567 275.094C249.687 280.516 259.227 288.763 263.602 294.142L265.249 296.166L263.928 300.421C263.202 302.761 262.357 304.884 262.05 305.138C261.641 305.478 260.272 305.183 256.875 304.021C254.333 303.152 252.457 302.374 252.705 302.291C253.599 301.993 253.093 301.212 249.401 297.194C238.346 285.164 221.779 275.042 208.52 272.218C196.713 269.704 186.224 270.019 173.113 273.283C163.151 275.763 147.139 280.933 136.945 284.96C130.764 287.402 129.505 287.771 127.756 287.656C126.903 287.6 121.943 283.725 120.856 282.265L120.1 281.25L123.86 279.885C132.305 276.819 153.566 271.014 165.388 268.547C183.727 264.721 199.08 263.366 212.106 264.425ZM534.299 279.427C539.387 294.958 540.717 302.505 539.889 311.145C539.602 314.146 539.265 317.017 539.141 317.524C539.017 318.033 536.833 320.087 534.268 322.107C528.864 326.364 529.439 326.767 528.665 318.178C528.267 313.772 528.261 309.562 528.637 299.923C529.355 281.557 529.697 275.375 530.256 270.656L530.51 268.524L531.528 271.301C532.089 272.828 533.335 276.485 534.299 279.427ZM206.413 272.984C219.057 275.444 230.055 281.289 242.804 292.325C245.441 294.608 251.989 301.804 251.696 302.098C251.617 302.176 246.94 300.893 241.303 299.246C223.227 293.964 212.865 291.737 196.289 289.572C181.419 287.629 154.641 286.627 141.14 287.508C137.717 287.731 134.838 287.848 134.743 287.767C134.308 287.397 142.152 284.257 150.17 281.591C166.244 276.246 178.318 273.101 187.062 271.983C190.58 271.533 201.99 272.123 206.413 272.984ZM125.35 288.359C125.443 288.705 120.658 289.703 118.745 289.736C118.113 289.747 117.275 289.434 116.882 289.041C116.056 288.214 116.196 287.078 117.5 284.038L118.386 281.971L121.824 285.003C123.715 286.671 125.302 288.181 125.35 288.359ZM465.565 286.331C475.152 287.342 485.169 290.504 492.319 294.776C494.27 295.942 497.314 298.346 499.298 300.289C502.153 303.084 503.153 304.429 504.593 307.408C505.571 309.428 506.37 311.331 506.37 311.636C506.37 311.942 505.638 311.53 504.744 310.721C502.105 308.335 499.295 306.56 494.648 304.344C477.301 296.071 453.831 293.926 433.597 298.766C423.292 301.231 414.777 304.812 397.438 313.973C388.327 318.787 382.111 321.33 380.17 321.038C379.396 320.922 379.901 320.358 383.037 317.831C392.629 310.106 417.676 295.376 428.474 291.112C439.441 286.78 453.109 285.019 465.565 286.331ZM180.838 289.319C198.994 290.854 214.138 293.214 227.833 296.641C237.702 299.111 258.305 305.506 258.305 306.099C258.305 306.637 244.471 311.029 236.846 312.912C223.331 316.248 218.197 316.945 206.804 316.988C195.743 317.03 191.444 316.552 181.894 314.218C165.349 310.174 149.148 302.763 132.667 291.698C130.106 289.978 129.943 289.783 130.881 289.559C135.284 288.508 169.315 288.345 180.838 289.319ZM67.6244 292.435C67.5219 292.97 67.4339 292.634 67.4292 291.689C67.4244 290.744 67.5086 290.307 67.6159 290.717C67.7232 291.128 67.727 291.901 67.6244 292.435ZM608.428 291.518C616.311 293.509 622.421 298.596 626.066 306.198C630.381 315.201 630.942 319.657 630.758 343.448C630.454 382.671 630.55 385.527 632.615 398.642C633.099 401.714 633.973 406.449 634.558 409.166C638.871 429.191 639.373 433.274 638.15 438.374C634.746 452.57 619.524 464.294 597.14 469.962C592.343 471.176 581.184 473.166 579.169 473.166C578.808 473.166 580.387 471.281 582.677 468.978C597.911 453.655 608.621 433.672 613.929 410.669C616.06 401.431 616.736 395.463 616.978 383.718C617.407 362.953 615.652 352.477 607.868 329.332C605.619 322.648 603.023 314.246 602.099 310.662C599.344 299.979 598.469 298.172 594.066 294.049C592.521 292.603 591.335 291.343 591.429 291.249C591.524 291.154 593.137 290.897 595.015 290.677C599.303 290.176 604.377 290.494 608.428 291.518ZM591.63 293.548C596.581 297.468 597.862 299.922 600.753 311.018C601.923 315.507 604.543 324.011 606.576 329.917C610.901 342.478 611.946 346.058 613.411 353.327C618.596 379.06 616.278 405.746 606.783 429.624C603.439 438.035 598.413 447.469 593.999 453.623C588.916 460.71 580.915 469.4 577.02 472.066C574.957 473.478 574.548 473.587 570.283 473.856L565.743 474.142L565.208 469.725C563.828 458.33 559.611 450.456 553.126 447.167C550.128 445.647 546.525 445.303 543.942 446.29C539.876 447.844 535.515 454.632 530.812 466.723C529.571 469.913 528.409 472.689 528.229 472.893C528.049 473.098 525.79 473.127 523.21 472.958L518.519 472.652L519.98 467.862C525.626 449.358 528.96 431.641 531.023 409.166C531.974 398.807 532.177 393.534 532.29 376.092L532.393 360.414L534.613 349.972C535.834 344.229 537.606 335.177 538.55 329.857C540.025 321.542 540.403 320.066 541.236 319.356C541.77 318.901 544.427 316.829 547.142 314.752C561.328 303.895 573.92 296.734 586.411 292.417C588.607 291.658 589.483 291.848 591.63 293.548ZM68.0536 296.301C67.951 296.836 67.8631 296.5 67.8583 295.555C67.8536 294.61 67.9377 294.172 68.045 294.583C68.1523 294.994 68.1562 295.767 68.0536 296.301ZM68.4751 299.528C68.3673 299.941 68.2789 299.603 68.2789 298.776C68.2789 297.949 68.3673 297.611 68.4751 298.025C68.5832 298.438 68.5832 299.115 68.4751 299.528ZM269.729 302.09C269.459 302.36 265.601 303.401 265.601 303.203C265.601 303.085 265.907 301.937 266.28 300.652L266.959 298.314L268.404 300.142C269.199 301.148 269.795 302.024 269.729 302.09ZM472.531 300.003C487.514 302.787 500.312 308.581 505.74 315.037C507.512 317.145 508.159 319.615 508.177 324.342C508.186 326.708 508.056 329.835 507.887 331.29C507.586 333.89 507.55 333.947 505.83 334.636C501.637 336.316 494.476 336.145 485.353 334.149C480.427 333.071 474.377 331.108 449.289 322.447C435.989 317.856 428.111 316.076 416.842 315.12C411.941 314.704 402.292 315.072 400.117 315.757C398.652 316.219 408.128 311.287 413.83 308.621C423.801 303.958 434.749 300.718 444.997 299.396C451.526 298.555 466.511 298.885 472.531 300.003ZM68.906 302.526C68.797 302.944 68.7008 302.706 68.6922 301.998C68.6837 301.289 68.7725 300.947 68.8901 301.238C69.0077 301.529 69.015 302.109 68.906 302.526ZM271.613 304.897C272.804 306.857 274.791 311.628 274.526 311.893C274.303 312.116 265.266 307.626 264.595 306.96C263.78 306.149 265.201 304.874 267.629 304.237C268.992 303.879 270.255 303.567 270.436 303.544C270.616 303.52 271.146 304.129 271.613 304.897ZM36.3382 312.092C43.4733 322.752 49.5093 329.685 60.5958 339.955L63.085 342.261L60.5924 346.385C59.2211 348.653 55.5092 354.187 52.344 358.683C44.8827 369.28 41.1725 375.201 38.3386 381.032C34.0439 389.868 32.1284 397.39 32.1284 405.419V409.72L29.7937 407.51C27.6401 405.472 26.5491 404.834 26.5491 405.612C26.5491 405.784 27.877 407.282 29.4997 408.941L32.4503 411.958L32.9817 415.394C34.0718 422.445 37.4481 431.667 40.7103 436.505C41.4416 437.59 41.9721 438.545 41.8888 438.628C41.6116 438.905 36.5593 432.615 34.5164 429.448C32.0705 425.657 30.7388 422.765 28.8358 417.112C27.9083 414.359 27.4654 413.434 27.601 414.535C28.1761 419.203 32.295 428.098 36.3138 433.349C37.6155 435.05 42.1875 440.017 46.4733 444.388C56.1311 454.236 59.3254 458.721 66.4425 472.421C73.6355 486.269 78.2959 498.619 82.1233 513.972C84.8606 524.952 85.6409 527.487 87.3246 530.861C89.2559 534.731 90.5726 536.401 97.4424 543.695C100.625 547.074 104.973 551.771 107.105 554.133C109.237 556.495 111.378 558.783 111.864 559.216C112.723 559.983 112.727 560.062 112.029 562.223C111.475 563.938 111.315 566.052 111.324 571.529L111.337 578.616L114.026 588.925C118.419 605.767 119.816 609.319 126.838 621.51C128.587 624.548 130.761 628.511 131.668 630.315C133.696 634.351 136.024 637.491 138.564 639.619C139.627 640.509 143.682 643.362 147.577 645.96C159.635 654.003 169.512 661.205 182.77 671.621C199.781 684.986 206.931 689.741 218.606 695.455C228.166 700.133 234.896 702.883 244.357 705.98C248.134 707.216 251.394 708.384 251.602 708.574C251.981 708.921 249.987 717.89 249.182 719.461C248.788 720.229 248.365 720.262 242.053 720.005C231.452 719.574 226.483 718.849 195.86 713.269C169.225 708.414 165.249 707.897 149.663 707.259C137.185 706.748 132.647 706.067 128.423 704.073C121.26 700.69 117.576 694.858 115.519 683.637C114.703 679.195 114.614 670.869 114.989 634.67C115.168 617.441 115.142 616.691 114.207 612.264C111.453 599.222 105.15 587.146 95.218 575.884C89.476 569.373 82.2053 563.36 69.6815 554.765C61.8451 549.388 57.3984 546.03 53.1581 542.29C30.7731 522.547 22.9861 503.753 23.0046 469.515C23.011 457.605 23.5642 451.206 25.4848 440.819C28.098 426.687 28.0234 420.139 24.9844 396.924C23.8891 388.555 23.9762 374.149 25.1813 364.495C25.6972 360.36 26.4084 352.629 26.7616 347.313C27.6521 333.91 28.6066 324.055 29.5392 318.63C30.38 313.741 32.1314 305.928 32.3353 306.156C32.4023 306.232 34.2039 308.902 36.3382 312.092ZM269.18 310.832C272.05 312.266 274.689 313.722 275.043 314.069C275.561 314.577 275.687 316.02 275.687 321.482V328.264L273.891 331.892C269.983 339.784 260.885 348.262 245.43 358.413C236.099 364.542 234.483 365.832 233.347 368.06C230.264 374.108 234.557 381.693 249.447 396.498C259.043 406.039 262.238 410.127 266.446 418.246C269.429 424.001 270.972 427.886 271.394 430.7C271.671 432.55 271.609 432.732 270.414 433.584L269.139 434.492L268.895 433.272C268.761 432.6 268.146 431.451 267.529 430.717C265.999 428.897 263.946 428.546 261.322 429.656L259.311 430.506L257.639 427.89C255.057 423.85 247.163 416.137 242.475 413.073C228.935 404.223 216.582 401.126 182.341 397.996C137.131 393.863 119.087 390.482 104.445 383.398C94.7455 378.706 89.2048 373.722 84.1461 365.139C82.486 362.323 78.9088 354.321 78.9088 353.424C78.9088 353.202 80.741 353.94 82.9804 355.063C94.4103 360.801 107.698 363.409 120.175 362.365C132.43 361.338 141.969 358.815 171.397 348.817C193.046 341.461 202.568 338.611 220.862 334.008C238.804 329.493 245.245 327.084 252.199 322.286C253.915 321.102 256.372 318.995 257.658 317.605C259.865 315.22 263.455 309.697 263.455 308.688C263.455 307.989 263.575 308.034 269.18 310.832ZM526.125 323.351C525.833 324.985 525.49 326.216 525.362 326.088C525.234 325.96 525.384 324.36 525.697 322.532C526.009 320.704 526.353 319.473 526.46 319.795C526.568 320.118 526.417 321.718 526.125 323.351ZM538.358 322.937C538.238 323.469 537.545 327.19 536.817 331.206C535.352 339.29 532.15 355.158 531.943 355.366C531.87 355.439 531.685 353.608 531.531 351.299C531.377 348.989 530.925 343.07 530.527 338.145L529.802 329.193L531.712 327.63C532.763 326.77 534.588 325.149 535.768 324.028C538.173 321.743 538.673 321.533 538.358 322.937ZM72.2432 332.709C72.8544 336.135 73.8351 340.948 74.4222 343.405C75.0093 345.862 75.4084 347.953 75.3084 348.053C75.0681 348.294 72.1184 346.42 68.3081 343.607L65.2176 341.325L67.0635 336.91C68.0785 334.482 69.3622 330.964 69.9154 329.094C70.469 327.225 70.969 325.872 71.0265 326.088C71.0845 326.304 71.6317 329.284 72.2432 332.709ZM527.011 328.294C526.635 328.941 526.565 328.855 526.554 327.734C526.547 327.005 526.686 326.262 526.863 326.082C527.375 325.561 527.502 327.451 527.011 328.294ZM408.556 328.221C418.956 330.047 428.544 333.122 448.645 341.08C467.879 348.695 478.253 351.872 487.432 352.958C492.215 353.525 499.221 353.233 502.507 352.33L504.868 351.681L503.795 352.569C502.289 353.815 497.269 356.083 493.709 357.126C482.433 360.428 467.113 360.192 455.941 356.544C451.865 355.213 449.87 354.13 441.349 348.627C431.136 342.029 424.482 338.424 415.066 334.385C408.554 331.592 398.764 328.472 394.569 327.855C391.712 327.434 391.352 327.298 392.423 327.047C394.519 326.556 402.299 327.122 408.556 328.221ZM525.063 328.653C524.901 329.514 524.662 330.112 524.53 329.981C524.399 329.85 524.424 329.037 524.586 328.175C524.747 327.313 524.987 326.716 525.118 326.847C525.249 326.978 525.224 327.791 525.063 328.653ZM396.071 330.643C409.132 333.391 425.163 340.896 441.778 352.041C448.969 356.864 455.14 359.439 463.023 360.904C468.735 361.965 482.387 361.987 487.426 360.943C491.657 360.066 491.986 360.049 490.276 360.793C487.889 361.832 480.434 363.601 476.327 364.102C471.313 364.715 459.373 364.36 453.375 363.418C426.993 359.278 408.128 350.38 388.775 332.949C387.005 331.355 385.486 329.857 385.4 329.62C385.18 329.02 391.011 329.578 396.071 330.643ZM389.335 336.524C409.803 354.01 427.662 362.139 454.225 366.06C462.06 367.217 474.601 367.118 480.989 365.849C486.387 364.776 491.398 363.083 495.082 361.085C497.713 359.659 498.223 359.677 497.39 361.167C495.767 364.069 488.288 368.461 482.658 369.819C472.778 372.202 458.231 371.435 442.072 367.678C427.591 364.311 414.851 358.883 400.516 349.97C395.494 346.847 385.523 339.634 381.512 336.222L380.043 334.972L381.223 332.957C381.872 331.848 382.562 331.001 382.756 331.074C382.95 331.146 385.911 333.599 389.335 336.524ZM528.864 346.805C529.78 360.091 529.865 367.478 529.184 374.589C528.846 378.127 528.716 382.458 528.869 385.112C529.537 396.667 529.586 400.832 529.126 407.018C528.093 420.924 525.671 435.667 521.822 451.475C519.638 460.443 516.458 471.804 516.003 472.258C515.728 472.534 481.48 472.64 481.478 472.365C481.477 472.115 483.433 464.911 487.327 450.831C489.32 443.625 491.482 436.667 492.133 435.367C492.785 434.068 495.213 429.719 497.529 425.703C506.643 409.905 512.704 396.25 515.794 384.559C517.145 379.445 517.792 375.744 519.264 364.709C519.835 360.429 520.965 354.889 522.26 350.02C523.404 345.72 524.679 340.115 525.094 337.563C525.673 334.001 526.053 332.754 526.731 332.194C527.603 331.473 527.617 331.499 527.903 334.263C528.062 335.802 528.495 341.446 528.864 346.805ZM523.925 337.254C523.345 340.412 522.925 340.982 523.318 338.078C523.662 335.538 523.978 334.296 524.219 334.537C524.314 334.633 524.182 335.856 523.925 337.254ZM398.432 351.44C415.527 362.098 429.173 367.76 445.856 371.117C458.681 373.698 472.932 374.311 481.145 372.636C485.813 371.684 489.773 370.238 492.303 368.562C493.184 367.979 494.017 367.501 494.153 367.501C494.768 367.501 492.633 370.353 490.467 372.424C485.198 377.463 477.909 379.527 465.381 379.528C451.252 379.529 434.753 376.466 418.069 370.743C399.235 364.285 385.759 354.971 380.659 344.889C379.4 342.399 378.327 338.45 378.732 337.794C378.834 337.63 382.052 339.85 385.885 342.729C389.717 345.607 395.363 349.527 398.432 351.44ZM522.963 341.837C522.844 342.132 522.746 341.891 522.746 341.3C522.746 340.709 522.844 340.468 522.963 340.763C523.082 341.059 523.082 341.542 522.963 341.837ZM66.5081 344.889C67.5455 345.681 70.2231 347.532 72.4591 349.001L76.5239 351.672L77.6758 354.834C79.2204 359.073 82.2735 365.445 84.1924 368.432C93.3605 382.703 111.173 390.919 142.642 395.39C150.493 396.505 162.249 397.759 189.422 400.378C211.032 402.461 222.824 405.112 234.051 410.412C239.232 412.858 245.202 416.799 248.891 420.207C251.741 422.839 256.173 428.164 257.251 430.249C257.878 431.463 257.847 431.55 255.942 433.889C250.901 440.084 247.493 449.707 243.285 469.626C238.795 490.877 236.369 494.793 224.188 500.451C209.629 507.214 188.769 512.271 170.967 513.353C161.696 513.916 148.618 511.626 138.675 507.697C122.652 501.366 110.349 493.163 85.3465 472.141C77.5796 465.61 71.8372 461.364 63.9996 456.358L58.8675 453.08L56.3851 448.411C55.0195 445.844 53.568 443.26 53.1594 442.669C52.7509 442.079 50.1977 437.73 47.4861 433.005C42.2128 423.816 39.4133 419.37 36.0001 414.762C33.9336 411.972 33.8507 411.75 33.5881 408.264C33.0825 401.554 34.5971 393.289 37.7005 385.826C40.7768 378.428 43.9948 373.07 53.6062 359.34C56.8315 354.734 60.4941 349.273 61.7451 347.206C62.9966 345.139 64.1558 343.448 64.3215 343.448C64.4871 343.448 65.4713 344.096 66.5081 344.889ZM501.22 357.837C501.22 358.191 501.032 358.481 500.804 358.481C500.575 358.481 500.499 358.191 500.635 357.837C500.771 357.483 500.958 357.193 501.051 357.193C501.144 357.193 501.22 357.483 501.22 357.837ZM516.872 370.723C516.313 374.503 515.551 379.045 515.179 380.817C512.805 392.093 506.373 407.453 497.523 422.975C495.253 426.956 493.327 430.213 493.244 430.213C492.914 430.213 498.124 415.638 502.377 404.666C507.14 392.375 515.046 371.374 516.722 366.56C517.272 364.98 517.759 363.724 517.805 363.769C517.85 363.814 517.43 366.944 516.872 370.723ZM312.294 413.906C312.418 414.971 312.285 415.026 306.285 416.418C302.911 417.201 298.467 418.47 296.41 419.237C294.353 420.004 292.772 420.466 292.898 420.262C293.025 420.058 294.591 418.902 296.38 417.694C301.436 414.28 306.143 412.599 310.236 412.747C311.961 412.81 312.18 412.933 312.294 413.906ZM318.604 413.618L320.75 414.187L318.091 414.508C315.286 414.847 314.527 414.664 314.527 413.651C314.527 412.881 315.79 412.871 318.604 413.618ZM39.1785 421.193C40.6502 423.437 43.2695 427.786 44.9995 430.857C46.7295 433.928 49.0591 437.988 50.1762 439.878C53.1697 444.942 56.1959 450.511 56.0392 450.667C55.6693 451.038 50.205 446.058 47.0527 442.477C42.8991 437.758 39.8996 432.987 37.8665 427.861C36.4747 424.352 34.2696 416.526 34.2936 415.179C34.31 414.264 35.9988 416.343 39.1785 421.193ZM327.953 416.968C336.078 420.101 352.599 429.613 355.67 432.928C356.656 433.993 356.679 434.19 356.522 440.263C356.418 444.28 356.181 446.684 355.855 447.01C355.467 447.399 354.858 447.104 353.231 445.741C349.637 442.73 333.314 431.83 331.153 430.999C328.409 429.943 326.203 430.009 321.606 431.282C315.92 432.856 316.244 433.018 316.244 428.591C316.244 425.05 315.62 418.428 315.135 416.819C314.881 415.976 315.875 415.785 321.086 415.678C323.909 415.62 324.973 415.819 327.953 416.968ZM337.227 416.479C344.447 417.928 353.028 421.334 354.78 423.447C355.221 423.978 356.147 428.626 356.154 430.341C356.157 430.941 355.27 430.498 352.188 428.358C346.431 424.362 341.851 421.567 335.885 418.408C330.001 415.294 330.162 415.062 337.227 416.479ZM313.018 417.434C313.468 419.379 314.091 426.215 314.095 429.247C314.097 431.65 313.959 432.361 313.49 432.361C313.154 432.361 310.692 431.667 308.018 430.82C304.032 429.558 302.709 429.318 300.687 429.491C295.763 429.912 289.653 433.648 283.612 439.933C274.397 449.518 270.123 460.604 272.095 469.804C273.97 478.553 281.794 485.646 290.371 486.371C292.668 486.565 293.366 486.437 295.392 485.445C297.837 484.247 299.506 482.245 299.506 480.508C299.506 478.758 297.683 475.962 294.541 472.895C289.266 467.745 285.846 466.811 283.963 470.006C283.483 470.819 283 471.394 282.889 471.282C282.388 470.781 283.358 468.448 284.535 467.321C285.819 466.091 285.878 466.079 291.059 466.079C296.962 466.079 298.646 466.644 301.111 469.453C303.837 472.561 303.852 474.949 301.182 480.841C299.59 484.355 298.317 485.719 295.494 486.935C289.555 489.491 281.764 486.704 274.301 479.352C267.846 472.992 266.087 467.001 268.143 458.371C270.557 448.237 276.493 437.217 284.315 428.349C287.885 424.301 289.801 423.066 296.363 420.587C299.72 419.319 310.296 416.516 311.837 416.486C312.486 416.474 312.866 416.779 313.018 417.434ZM363.1 430.34C365.676 433.337 367.491 435.878 369.454 439.233C374.589 448.011 378.513 462.303 378.595 472.522C378.633 477.166 377.836 479.645 375.937 480.793C375.446 481.09 372.292 481.994 368.927 482.801C365.563 483.609 362.424 484.414 361.951 484.59C361.466 484.77 362.026 483.972 363.239 482.755C366.192 479.791 369.283 474.452 371.089 469.198C372.825 464.146 373.383 458.044 372.499 453.781C371.407 448.516 367.428 441.922 362.163 436.653C359.024 433.511 358.809 433.177 358.547 431.012C358.393 429.745 358.158 427.958 358.023 427.04L357.779 425.371L359.479 426.738C360.413 427.49 362.043 429.111 363.1 430.34ZM281.364 429.032C279.256 431.533 275.514 437.002 273.649 440.307L272.436 442.455L272.69 440.522C272.83 439.459 273.078 437.351 273.243 435.839L273.541 433.089L278.228 429.933C280.806 428.197 282.993 426.777 283.089 426.777C283.185 426.777 282.409 427.791 281.364 429.032ZM265.665 431.106C266.691 431.656 267.844 434.185 267.49 435.108C267.162 435.965 264.538 436.805 263.223 436.475C262.205 436.22 260.451 433.533 260.451 432.229C260.451 430.941 263.951 430.189 265.665 431.106ZM306.427 432.737C308.64 433.417 311.271 434.111 312.274 434.279L314.098 434.584V438.256C314.098 440.277 313.871 444.113 313.593 446.781L313.087 451.633L311.769 450.958C311.044 450.586 308.372 448.874 305.833 447.153L301.217 444.024L298.537 445.074C297.064 445.652 294.216 447.072 292.21 448.23C290.204 449.387 287.436 450.756 286.059 451.271C280.908 453.198 278.502 457.067 278.139 464.011C277.793 470.638 279.303 475.83 282.672 479.589C285.319 482.544 288.548 483.052 291.67 481.005C292.954 480.163 294.504 477.178 294.144 476.24C293.665 474.989 296.416 477.934 296.963 479.257C297.417 480.354 297.373 480.677 296.631 481.677C295.245 483.546 294.05 483.948 290.279 483.813C287.553 483.715 286.342 483.442 284.402 482.489C276.081 478.399 272.149 469.649 274.473 460.392C275.299 457.097 278.65 450.28 281.718 445.649C284.811 440.981 290.041 435.934 293.874 433.92C299.29 431.074 300.609 430.95 306.427 432.737ZM330.836 432.938C332.898 433.677 349.821 445.111 352.699 447.71L355.035 449.818L354.014 451.505C352.68 453.708 345.883 460.71 345.077 460.71C344.734 460.71 341.92 461.43 338.825 462.31C333.96 463.693 332.582 463.912 328.671 463.921C323.187 463.933 322.656 463.66 320.213 459.565C319.249 457.95 317.685 455.85 316.736 454.899L315.011 453.168L315.623 447.382C315.959 444.199 316.236 440.001 316.239 438.052L316.244 434.508L317.424 434.476C318.074 434.458 320.15 433.992 322.038 433.441C325.924 432.307 328.644 432.151 330.836 432.938ZM259.94 435.273C262.495 441.217 263.935 447.38 264.545 454.989C264.723 457.202 265.028 458.58 265.37 458.711C265.783 458.87 265.82 459.468 265.524 461.211C265.068 463.897 265.402 468.475 266.266 471.387C268.671 479.489 280.524 489.009 289.635 490.153C290.768 490.296 292.542 490.134 293.926 489.762C295.224 489.414 296.33 489.173 296.383 489.226C296.437 489.28 294.832 491.825 292.818 494.883C290.804 497.94 287.689 503.051 285.896 506.24C284.102 509.429 282.412 512.407 282.14 512.858C281.786 513.441 280.576 513.892 277.914 514.432C271.83 515.665 250.78 522.892 233.413 529.712C222.996 533.803 210.794 539.983 203.665 544.779C195.105 550.537 195.612 550.618 184.722 541.764C180.933 538.685 176.437 535.249 174.729 534.128C164.264 527.266 150.76 526.686 138.446 532.571C129.661 536.77 120.116 545.457 116.227 552.795C115.649 553.885 115.073 554.777 114.946 554.777C114.82 554.777 113.583 552.216 112.199 549.086C103.029 528.358 90.9666 506.926 75.0175 483.024C70.7132 476.574 67.8957 471.734 64.5511 465.045C62.034 460.011 60.0606 455.806 60.1658 455.701C60.4074 455.459 69.0802 460.902 73.3295 463.963C75.0999 465.238 81.4813 470.392 87.5104 475.415C104.147 489.277 112.126 495.142 122.435 501.085C135.795 508.788 149.53 513.304 163.028 514.432C179.897 515.842 211.114 509.049 228.032 500.286C233.01 497.708 237.095 493.932 238.894 490.247C241.17 485.583 241.417 484.665 246.496 461.998C249.103 450.361 252.052 442.085 255.322 437.225C256.921 434.85 258.318 433.22 258.756 433.22C258.922 433.22 259.455 434.144 259.94 435.273ZM271.578 438.421C271.312 440.639 271.043 443.228 270.98 444.173C270.918 445.118 270.285 447.147 269.575 448.683C268.865 450.218 267.825 452.731 267.264 454.267L266.245 457.059L266.132 455.126C265.917 451.441 264.699 444.461 263.712 441.259L262.72 438.042L264.762 437.846C266.238 437.704 267.498 437.171 269.314 435.919C270.695 434.968 271.877 434.234 271.943 434.288C272.007 434.343 271.843 436.202 271.578 438.421ZM362.315 438.829C367.444 444.373 370.262 449.641 371.226 455.488C371.904 459.595 371.256 464.17 369.29 469.17L367.802 472.951L367.774 470.142C367.716 464.386 365.467 459.063 360.493 452.906L357.602 449.327L358.186 447.18C358.508 445.998 358.811 442.955 358.859 440.417C358.908 437.878 359.074 435.8 359.229 435.799C359.384 435.798 360.773 437.162 362.315 438.829ZM488.238 442.347C487.898 443.94 481.592 466.714 480.643 469.779L479.762 472.62L474.788 472.927C472.052 473.095 469.719 473.139 469.604 473.024C469.405 472.825 487.956 441.418 488.287 441.393C488.373 441.386 488.352 441.816 488.238 442.347ZM305.875 449.809C308.392 451.373 310.908 452.939 311.468 453.289C312.356 453.844 312.454 454.153 312.233 455.707C312.093 456.687 311.732 458.292 311.43 459.275L310.879 461.061L308.167 459.411C302.795 456.143 295.586 455.945 289.8 458.906C286.565 460.561 283.761 463.649 280.962 468.638L280.229 469.945L280.211 466.479C280.191 462.48 280.932 459.596 282.695 456.813C283.852 454.988 284.499 454.572 291.83 450.94C296.17 448.79 300.076 447.016 300.511 446.998C300.946 446.98 303.36 448.244 305.875 449.809ZM551.25 448.973C557.258 451.018 562.247 460.066 563.243 470.722L563.556 474.076L553.525 473.994C543.676 473.914 531.331 473.378 530.968 473.015C530.641 472.689 533.829 464.494 536.043 459.97C539.81 452.27 543.684 448.253 547.344 448.253C548.329 448.253 550.086 448.577 551.25 448.973ZM361.41 457.474C364.637 462.509 365.76 466.064 365.491 470.397C364.896 479.961 357.79 485.876 345.857 486.739C343.135 486.936 342.432 486.841 341.305 486.126C340.572 485.661 339.872 484.9 339.751 484.435C339.542 483.636 339.754 483.592 343.659 483.633C348.205 483.682 351.432 482.856 356.292 480.4C359.521 478.769 363.257 475.279 363.917 473.277C364.556 471.341 364.178 468.127 363.052 465.918C361.46 462.796 357.504 460.621 352.355 460.038L349.693 459.737L352.193 457.109C353.567 455.664 355.142 453.839 355.691 453.055L356.689 451.627L357.952 452.838C358.646 453.504 360.203 455.59 361.41 457.474ZM57.0838 453.69C57.8473 454.556 60.1576 458.992 59.846 458.992C59.7392 458.992 58.5868 457.444 57.2843 455.552C55.2113 452.539 55.0916 451.429 57.0838 453.69ZM318.083 460.184C320.565 464.251 321.592 465.222 324.133 465.911C326.89 466.659 333.874 466.141 338.13 464.872C340.135 464.274 341.826 463.835 341.888 463.896C341.949 463.957 340.824 465.002 339.388 466.217C337.797 467.564 336.079 468.6 334.987 468.873C329.961 470.125 325.895 471.702 323.671 473.261C320.912 475.196 321.325 475.388 318.845 471.014C318.033 469.583 316.325 467.144 315.049 465.596L312.728 462.78L313.221 460.779C314.529 455.473 314.535 455.457 315.227 456.031C315.584 456.328 316.869 458.197 318.083 460.184ZM301.353 459.405C304.121 459.859 306.725 461.03 308.862 462.782L310.278 463.944L308.577 468.018C307.642 470.259 306.595 472.63 306.25 473.287L305.624 474.483L305.118 472.474C304.049 468.226 300.324 464.679 295.888 463.686C294.651 463.409 292.256 463.26 290.564 463.356C288.873 463.452 287.489 463.424 287.489 463.294C287.489 462.893 291.911 460.418 293.498 459.931C296.606 458.976 298.117 458.874 301.353 459.405ZM354.807 462.455C356.954 462.915 361.192 465.264 360.724 465.733C360.584 465.872 360.209 465.77 359.889 465.504C359.57 465.239 357.972 464.516 356.338 463.897C353.754 462.919 352.879 462.795 349.613 462.947C347.547 463.043 345.857 463.068 345.857 463.002C345.857 462.936 346.485 462.701 347.252 462.479C349.18 461.922 352.279 461.912 354.807 462.455ZM357.411 466.614C359.162 467.501 360.981 468.751 361.453 469.393C364.641 473.725 354.774 480.504 343.694 481.594C340.203 481.938 340.646 481.427 345.214 479.841C351.097 477.798 354.872 474.591 354.868 471.636C354.866 469.711 353.452 467.748 351.636 467.148C346.156 465.338 338.382 469.779 334.925 476.695C334.093 478.361 333.411 479.988 333.411 480.311C333.411 480.743 332.721 480.898 330.8 480.898H328.189L329.62 479.081C330.407 478.082 333.079 475.28 335.557 472.853C344.039 464.547 349.982 462.851 357.411 466.614ZM313.611 467.367C315.001 468.951 317.415 472.582 318.587 474.851L319.284 476.2L317.185 478.656C311.589 485.204 308.284 492.18 305.03 504.307C303.043 511.716 301.674 516.192 301.252 516.66C301.091 516.839 299.727 516.484 298.221 515.872C294.894 514.519 290.016 513.542 286.587 513.542H284.043L285.394 510.858C287.783 506.11 293.028 497.644 298.662 489.443C304.84 480.451 307.65 475.626 310.075 469.847C310.989 467.667 311.863 465.879 312.015 465.874C312.168 465.868 312.886 466.541 313.611 467.367ZM351.866 469.73C354.452 472.318 351.627 475.249 344.207 477.676C342.156 478.347 340.023 479.377 339.216 480.087C337.75 481.375 335.557 481.663 335.557 480.568C335.557 478.809 339.125 473.895 341.988 471.71C345.662 468.905 350.144 468.007 351.866 469.73ZM290.501 472.11C291.568 472.887 292.823 473.951 293.291 474.475C294.14 475.426 294.14 475.428 293.265 475.156C292.541 474.931 286.786 474.085 285.665 474.039C285.058 474.014 285.343 471.51 286.032 470.82C286.899 469.952 287.959 470.258 290.501 472.11ZM331.847 473.274C328.777 476.427 325.854 480.122 325.47 481.331C325.321 481.801 325.056 482.186 324.882 482.186C324.498 482.186 321.587 476.26 321.851 476.017C323.479 474.524 332.258 470.62 334.042 470.595C334.272 470.592 333.284 471.797 331.847 473.274ZM515.264 474.622C515.443 474.801 511.105 486.73 509.155 491.421C504.392 502.882 497.533 516.316 491.833 525.348C480.34 543.559 465.168 559.628 450.147 569.497C444.065 573.493 432.6 579.024 431.884 578.307C431.785 578.207 432.183 576.232 432.77 573.918C433.546 570.854 434.193 569.286 435.147 568.149C445.632 555.672 450.723 547.571 459.485 529.435C469.96 507.752 475.25 494.402 480.08 477.462L480.876 474.67L483.43 474.387C485.81 474.123 514.981 474.339 515.264 474.622ZM479.166 475.183C479.035 475.609 478.234 478.374 477.388 481.327C474.005 493.123 470.29 502.792 463.362 517.838C454.687 536.676 446.896 550.919 440.957 558.793C437.146 563.846 434.076 567.301 434.41 566.16C434.548 565.687 436.132 559.054 437.93 551.419C444.347 524.166 447.054 515.246 451.903 505.381C455.466 498.13 464.855 480.741 467.14 477.16L468.566 474.924L471.436 474.797C473.015 474.727 475.453 474.611 476.856 474.539C479.146 474.42 479.38 474.486 479.166 475.183ZM288.133 476.84C292.017 477.238 292.098 477.298 290.696 478.763C289.757 479.744 289.094 480.039 287.827 480.039C286.448 480.039 285.866 479.726 284.259 478.117C281.808 475.664 281.675 474.665 283.948 475.785C284.834 476.221 286.717 476.696 288.133 476.84ZM526.806 475.14L527.715 475.384L526.473 479.249C525.79 481.375 522.809 491.555 519.848 501.872C507.882 543.561 503.433 557.155 496.251 573.972C485.89 598.232 474.576 615.409 458.101 631.889C443.82 646.174 428.559 657.335 400.148 674.266C392.831 678.627 382.602 684.86 377.418 688.117C361.689 697.998 353.537 702.101 341.351 706.27C326.171 711.462 311.723 713.579 294.356 713.154C284.923 712.922 279.263 712.316 269.034 710.439C263.923 709.501 254.888 707.421 254.579 707.111C254.475 707.007 255.29 703.723 255.469 703.523C255.512 703.474 257.085 703.709 258.965 704.044C263.08 704.779 280.811 704.895 288.562 704.239C327.476 700.947 360.09 688.879 384.269 668.825C390.605 663.57 400.442 653.318 403.129 649.169C403.549 648.52 404.995 647.319 406.343 646.5C412.465 642.778 419.354 633.035 422.504 623.644C423.497 620.683 423.606 619.758 423.504 615.147C423.402 610.495 423.512 609.581 424.595 606.106C425.257 603.98 426.98 597.532 428.424 591.777L431.049 581.313L434.912 579.926C442.324 577.264 451.083 572.05 459.589 565.235C464.678 561.158 476.074 549.898 480.824 544.254C491.147 531.987 501.262 515.322 508.88 498.031C511.411 492.285 516.759 478.385 517.33 476.066L517.621 474.884L521.759 474.89C524.035 474.893 526.306 475.006 526.806 475.14ZM466.027 475.572C466.027 475.713 464.988 477.695 463.719 479.974C458.839 488.739 451.193 503.205 449.268 507.314C445.482 515.398 442.664 524.997 436.596 550.482L432.146 569.167L428.501 572.647C424.681 576.293 419.473 580.139 416.901 581.215C414.515 582.213 408.39 582.134 405.437 581.067C402.841 580.13 397.25 576.265 391.463 571.406C386.215 567.001 377.923 558.204 370.141 548.787C366.345 544.193 361.887 538.908 360.235 537.042C358.582 535.176 356.684 532.995 356.015 532.195L354.8 530.741L357.352 527.618C361.175 522.937 369.911 514.684 375.701 510.284C399.757 492.002 426.973 480.468 455.083 476.645C458.624 476.163 462.003 475.693 462.594 475.6C464.409 475.314 466.027 475.301 466.027 475.572ZM568.815 476.618C565.619 478.146 565.233 478.171 565.487 476.838C565.695 475.751 565.626 475.769 570.746 475.43C571.1 475.407 570.231 475.941 568.815 476.618ZM321.807 481.294L323.516 484.697L322.656 487.2C320.349 493.912 319.198 504.064 320.069 510.023C320.497 512.957 321.621 516.966 322.873 520.029C323.11 520.608 322.554 520.798 319.329 521.239C314.923 521.842 312.024 521.475 307.34 519.722C303.262 518.195 302.39 517.576 302.921 516.583C303.155 516.145 304.428 511.755 305.749 506.826C308.587 496.238 310.729 490.529 313.642 485.792C315.465 482.828 319.392 477.891 319.927 477.891C320.02 477.891 320.866 479.422 321.807 481.294ZM78.3642 489.381C91.7532 509.797 103.997 532.199 111.737 550.44C113.889 555.513 114.12 556.328 113.679 557.297L113.178 558.397L109.241 554.321C100.772 545.556 92.7798 536.937 91.1829 534.847C88.2679 531.032 86.7533 527.023 83.6551 514.921C79.7869 499.809 77.635 493.288 72.6072 481.435C71.875 479.708 73.4149 481.834 78.3642 489.381ZM332.658 483.688C332.545 484.279 332.779 485.757 333.176 486.974C333.767 488.781 333.796 489.252 333.333 489.546C332.024 490.376 330.726 489.754 327.51 486.755C325.879 485.233 325.812 484.822 326.99 483.556C327.697 482.797 328.346 482.616 330.364 482.616C332.797 482.616 332.857 482.644 332.658 483.688ZM336.829 483.045C337.018 483.045 337.386 483.867 337.647 484.871C338.29 487.34 338.549 487.657 340.513 488.377L342.209 488.998L339.593 489.029C336.436 489.065 335.576 488.351 335.107 485.298C334.754 483.011 334.923 482.445 335.85 482.801C336.199 482.936 336.64 483.045 336.829 483.045ZM329.585 491.011C330.395 491.43 330.768 491.842 330.491 492.013C330.233 492.173 329.39 493.651 328.618 495.299C327.347 498.01 327.216 498.66 327.24 502.16C327.263 505.46 327.495 506.672 328.822 510.45C329.676 512.884 330.546 515.814 330.755 516.96C331.132 519.039 331.13 519.046 329.858 519.301C329.157 519.441 327.879 519.556 327.019 519.556C325.471 519.556 325.443 519.524 324.289 516.442C322.49 511.639 322.126 509.469 322.143 503.663C322.159 498.349 322.757 494.33 324.238 489.598L324.943 487.345L326.576 488.822C327.475 489.634 328.829 490.619 329.585 491.011ZM335.986 490.608C335.986 490.701 335.697 490.777 335.342 490.777C334.988 490.777 334.699 490.59 334.699 490.361C334.699 490.132 334.988 490.056 335.342 490.192C335.697 490.328 335.986 490.515 335.986 490.608ZM294.356 516.058C297.475 516.991 300.539 518.236 300.302 518.473C300.216 518.559 298.505 518.136 296.5 517.533C293.564 516.651 291.872 516.428 287.814 516.386C285.042 516.357 282.772 516.199 282.771 516.034C282.759 514.595 289.514 514.61 294.356 516.058ZM281.045 515.583C281.028 516.421 280.121 516.96 276.545 518.256C274.421 519.026 269.11 521.297 264.743 523.302C260.376 525.308 251.009 529.326 243.928 532.231C236.846 535.137 227.319 539.184 222.755 541.225C212.971 545.602 211.135 546.313 206.628 547.466C201.018 548.901 200.624 548.654 204.495 546.126C216.282 538.425 227.106 533.397 250.096 524.946C264.404 519.686 272.541 516.982 276.705 516.103C281.133 515.168 281.053 515.177 281.045 515.583ZM295.495 518.665C299.854 519.984 299.797 519.91 298.628 522.732L297.631 525.14L292.453 525.147C289.605 525.152 285.545 525.337 283.43 525.56C281.316 525.782 279.53 525.908 279.461 525.839C279.297 525.674 281.259 519.914 281.866 518.777C282.146 518.254 282.911 517.81 283.734 517.691C286.53 517.287 292.601 517.79 295.495 518.665ZM279.621 519.234C279.503 519.529 278.897 521.251 278.275 523.061L277.144 526.352L273.84 527.065C260.161 530.016 249.667 533.509 229.496 541.823C223.931 544.117 214.558 547.218 214.218 546.877C214.148 546.808 218.198 544.904 223.216 542.647C232.017 538.688 238.282 536.028 250.58 531.03C253.766 529.735 260.043 526.981 264.528 524.91C271.837 521.535 278.501 518.774 279.478 518.718C279.675 518.706 279.739 518.938 279.621 519.234ZM307.875 521.205C311.703 522.566 312.608 522.727 316.244 522.692C318.486 522.67 321.137 522.461 322.133 522.227C323.562 521.89 324.05 521.928 324.447 522.406C324.724 522.74 324.874 523.081 324.782 523.165C324.689 523.248 321.413 523.566 317.502 523.87L310.392 524.424L306.378 522.312C304.17 521.151 302.274 519.928 302.164 519.595C302.016 519.145 302.173 519.078 302.774 519.334C303.219 519.523 305.515 520.365 307.875 521.205ZM330.836 521.031C330.836 522.183 330.001 523.851 329.425 523.851C329.109 523.851 328.306 523.281 327.639 522.585L326.428 521.319L327.452 521.099C329.385 520.682 330.193 520.514 330.514 520.465C330.691 520.437 330.836 520.692 330.836 521.031ZM335.914 521.068C341.081 522.287 345.12 524.417 350.026 528.506L352.692 530.728L351.772 532.337C351.266 533.221 350.803 534.013 350.742 534.097C350.682 534.18 348.996 532.97 346.997 531.408C342.784 528.115 337.189 525.048 333.921 524.239C331.946 523.75 331.672 523.557 331.876 522.797C332.006 522.313 332.115 521.58 332.118 521.166C332.125 520.257 332.44 520.249 335.914 521.068ZM307.23 524.393C307.23 524.449 306.021 524.512 304.544 524.532C303.067 524.552 301.409 524.81 300.86 525.104C299.431 525.869 299.317 525.477 300.311 523.228L301.187 521.245L304.209 522.768C305.871 523.606 307.231 524.337 307.23 524.393ZM326.784 525.329C327.858 526.127 327.285 527.201 325.225 528.253C322.62 529.584 318.874 529.304 308.733 527.024L304.442 526.059L307.057 526.029C308.628 526.011 310.668 526.341 312.167 526.858C313.539 527.33 315.066 527.714 315.56 527.71C316.868 527.701 318.604 526.718 318.604 525.986C318.604 524.775 325.314 524.236 326.784 525.329ZM336.763 526.954C339.991 528.285 345.33 531.825 348.034 534.427L349.566 535.902L348.677 537.822C348.189 538.879 347.631 539.743 347.439 539.743C346.979 539.744 332.09 528.437 331.082 527.321C330.642 526.835 330.418 526.158 330.569 525.766C330.908 524.881 332.457 525.178 336.763 526.954ZM296.64 528.898C296.446 530.256 296.287 533.059 296.287 535.127C296.287 537.194 296.167 538.885 296.019 538.885C295.872 538.885 294.93 538.595 293.927 538.24C291.555 537.403 286.357 537.417 280.959 538.276C278.61 538.65 276.604 538.872 276.501 538.77C276.282 538.55 277.353 533.266 278.323 529.786L279.003 527.345L281.851 527.07C283.418 526.917 284.893 526.726 285.129 526.645C285.365 526.563 288.131 526.481 291.275 526.462L296.993 526.428L296.64 528.898ZM308.793 528.552C318.422 530.911 323.481 531.001 327.076 528.877L328.865 527.819L331.128 529.774C332.848 531.26 333.339 531.943 333.175 532.622C332.994 533.372 334.026 534.262 339.623 538.172C343.288 540.734 346.286 542.999 346.286 543.206C346.286 543.769 340.093 547.844 337.478 549.001C327.264 553.523 317.26 551.732 302.218 542.691L298.707 540.581L298.404 538.155C298.078 535.541 298.388 528.869 298.897 527.558C299.164 526.868 299.516 526.792 301.396 527.015C302.599 527.158 305.928 527.85 308.793 528.552ZM275.718 532.989C275.11 535.698 274.614 538.222 274.614 538.598C274.614 539.422 273.382 539.776 265.601 541.194C255.062 543.115 243.569 544.326 241.205 543.765C239.539 543.369 238.563 542.35 238.563 541.006C238.563 539.91 238.898 539.683 243.177 537.885C248.583 535.613 254.912 533.385 261.02 531.604C265.578 530.276 276.444 527.737 276.683 527.944C276.759 528.011 276.324 530.281 275.718 532.989ZM162.954 530.554C169.58 532.024 173.648 534.439 184.206 543.172L190.086 548.037L189.171 548.89C188.265 549.735 188.204 551.15 188.989 553.133C189.213 553.697 188.393 554.37 185.167 556.27C171.865 564.105 156.987 567.781 138.35 567.839C130.431 567.863 127.295 567.195 121.394 564.225C117.84 562.437 117.256 561.775 116.249 558.396C115.773 556.8 115.824 556.456 116.827 554.474C120.695 546.835 129.905 538.209 138.742 533.948C147.387 529.782 154.791 528.743 162.954 530.554ZM357.501 535.998C359.044 537.704 363.759 543.255 367.978 548.334C377.287 559.538 389.86 572.308 395.602 576.391C397.822 577.969 399.549 579.261 399.44 579.261C398.829 579.261 391.03 575.897 387.897 574.282C383.423 571.976 380.216 569.178 376.445 564.29C370.274 556.291 359.646 543.709 354.731 538.586L351.767 535.496L352.696 533.991C353.207 533.162 353.867 532.578 354.161 532.691C354.456 532.804 355.959 534.292 357.501 535.998ZM363.84 551.126C367.469 555.379 369.881 558.363 369.2 557.758C362.291 551.631 360.018 549.68 355.93 546.369C353.327 544.261 350.719 542.221 350.136 541.837L349.076 541.138L350.086 539.051L351.095 536.963L354.167 540.179C355.857 541.948 360.21 546.874 363.84 551.126ZM294.127 539.775C295.435 540.265 296.713 541.053 296.966 541.527C297.238 542.036 297.686 542.287 298.063 542.143C298.416 542.007 300.281 542.85 302.236 544.027C313.469 550.794 322.76 553.692 329.796 552.625C334.806 551.865 340.917 549.426 344.434 546.784C346.183 545.47 346.303 545.491 345.86 547.035C345.659 547.738 345.357 550.071 345.189 552.221C344.887 556.083 344.871 556.127 343.845 555.869C341.007 555.156 334.07 554.352 330.735 554.35C328.673 554.349 323.845 554.661 320.006 555.044C309.9 556.051 300.669 555.99 293.068 554.867C289.646 554.362 284.817 553.742 282.339 553.49C279.86 553.239 277.046 552.936 276.085 552.817L274.337 552.6L274.924 547.568C275.793 540.112 275.545 540.514 279.798 539.677C285.145 538.626 291.167 538.667 294.127 539.775ZM239.138 544.33C241.728 545.671 251.703 544.88 266.68 542.146C270.807 541.393 274.184 540.786 274.182 540.797C274.182 540.809 273.796 543.427 273.326 546.616C272.856 549.805 272.471 552.475 272.47 552.548C272.469 552.622 271.164 552.57 269.571 552.432C259.944 551.604 251.882 550.869 250.58 550.699C236.942 548.924 222.795 547.719 220.605 548.144C220.213 548.221 218.735 548.38 217.319 548.499C214.844 548.707 214.965 548.641 220.406 546.816C223.52 545.772 228.445 543.887 231.35 542.627L236.632 540.336L237.207 541.982C237.588 543.073 238.239 543.864 239.138 544.33ZM355.514 550.091C358.582 552.303 362.542 555.352 364.312 556.869C368.275 560.262 375.794 567.604 378.105 570.335L379.821 572.362L375.119 569.219C367.365 564.034 359.077 560.18 350.149 557.608L346.93 556.681L346.789 554.333C346.661 552.195 347.338 546.442 347.887 545.01C348.065 544.546 348.306 544.596 349.024 545.246C349.525 545.699 352.445 547.879 355.514 550.091ZM228.735 549.622C231.945 549.854 237.642 550.446 241.395 550.939C250.685 552.158 253.73 552.482 263.455 553.288C268.058 553.669 271.948 554.112 272.1 554.272C272.252 554.432 272.275 555.215 272.151 556.011L271.926 557.459L269.729 557.202C255.422 555.523 208.702 551.786 199.176 551.558C193.354 551.419 193.787 550.916 199.758 550.882C202.571 550.866 208.445 550.503 212.812 550.075C222.793 549.097 221.839 549.125 228.735 549.622ZM192.212 551.481C192.212 552.417 192.545 553.212 193.177 553.786C194.649 555.121 198.912 557.721 201.523 558.877C202.807 559.445 204.73 560.499 205.795 561.219C206.861 561.938 208.538 562.937 209.521 563.438C213.039 565.228 227.109 574.388 231.937 578.032C234.641 580.072 238.147 582.585 239.727 583.616C242.395 585.355 242.839 585.5 245.949 585.642C247.79 585.726 251.951 585.46 255.196 585.05C260.866 584.334 269.161 583.968 269.603 584.415C269.993 584.809 267.635 615.596 267.18 616.051C266.76 616.472 263.155 614.28 256.624 609.635C245.581 601.78 242.974 599.325 228.694 583.333C215.098 568.106 208.934 562.833 200.294 559.041C194.122 556.332 192.879 555.465 191.336 552.792C190.637 551.582 190.066 550.471 190.066 550.322C190.066 550.174 190.549 550.052 191.139 550.052C192.068 550.052 192.212 550.244 192.212 551.481ZM208.735 553.723C215.544 554.085 230.635 555.129 236.632 555.653C247.377 556.592 268.882 558.649 270.322 558.875L271.824 559.111L271.673 561.275C271.536 563.242 271.438 563.418 270.6 563.211C270.093 563.085 266.878 562.562 263.455 562.048C256.321 560.978 246.867 560.771 233.379 561.393C223.215 561.861 215.386 561.258 211.194 559.685C208.153 558.544 199.09 554.09 198.435 553.415C198.141 553.112 198.953 553.051 201.01 553.222C202.662 553.36 206.139 553.585 208.735 553.723ZM290.388 555.873C301.797 557.403 306.911 557.574 316.029 556.732C328.433 555.587 331.809 555.474 336.615 556.044C343.012 556.803 345.183 557.416 345.344 558.508L345.474 559.395L342.125 558.533C337.123 557.246 327.403 557.24 321.604 558.521C311.302 560.796 303.752 560.856 285.185 558.811C277.524 557.968 274.018 557.419 273.873 557.041C273.757 556.74 273.791 555.983 273.947 555.359L274.232 554.224L278.287 554.51C280.517 554.666 285.963 555.28 290.388 555.873ZM192.391 556.471C193.401 557.166 196.84 558.978 200.033 560.497C206.635 563.636 210.702 566.159 214.07 569.206C215.351 570.365 220.655 576.05 225.855 581.838C240.426 598.056 246.081 603.502 254.142 609.081C260.553 613.518 262.084 614.716 260.795 614.286C253.925 611.994 249.634 611.329 245.889 611.974C241.374 612.752 239.779 615.374 242.318 617.844L243.498 618.992L238.348 619.049C232.923 619.108 222.697 620.15 217.915 621.131C210.407 622.671 199.042 631.147 193.689 639.199C188.567 646.904 186.868 656.365 189.261 663.876C191.027 669.422 196.101 674.943 203.846 679.745C208.962 682.917 220.925 688.918 231.349 693.54C235.289 695.287 238.453 696.775 238.381 696.848C238.308 696.921 235.857 696.089 232.934 695.001C222.876 691.256 213.87 687.426 206.804 683.888C192.086 676.519 185.102 671.436 172.326 658.792C154.806 641.452 144.052 626.995 135.056 608.684C130.832 600.086 127.723 592.143 122.694 577.099C120.524 570.61 118.652 565.056 118.533 564.756C118.401 564.425 118.88 564.543 119.749 565.057C122.025 566.4 126.917 568.118 130.341 568.776C134.415 569.559 140.25 569.543 148.483 568.726C164.014 567.184 174.027 564.215 185.345 557.795C187.823 556.389 190.01 555.231 190.203 555.223C190.397 555.214 191.381 555.776 192.391 556.471ZM115.589 560.304C115.185 560.708 114.589 559.419 114.857 558.72C115.046 558.229 115.191 558.311 115.47 559.066C115.672 559.611 115.725 560.168 115.589 560.304ZM353.526 560.012C356.508 561.001 361.651 563.177 364.956 564.847C370.83 567.815 381.05 574.276 381.05 575.02C381.05 575.512 380.309 575.503 380.004 575.008C379.639 574.418 367.329 567.385 363.561 565.615C361.732 564.755 357.34 563.07 353.801 561.871C349.157 560.298 347.327 559.486 347.224 558.952C347.026 557.92 347.417 557.985 353.526 560.012ZM210.452 561.411C213.048 562.409 217.83 564.715 221.078 566.536C229.936 571.5 230.275 571.621 236.02 571.856C238.753 571.968 242.616 571.845 244.604 571.582C255.513 570.144 260.631 570.159 267.962 571.65L270.537 572.173L270.425 574.536C270.364 575.835 270.202 578.3 270.067 580.012L269.819 583.126L265.672 583.128C263.39 583.128 259.882 583.324 257.876 583.564C250.647 584.425 245.259 584.728 243.889 584.35C242.212 583.886 237.472 580.826 232.554 577.032C227.527 573.154 215.834 565.55 209.379 561.961C206.428 560.32 204.4 559.117 204.872 559.287C205.345 559.457 207.855 560.412 210.452 561.411ZM284.699 560.347C304.737 562.527 309.861 562.529 321.178 560.362C328.852 558.892 333.898 558.714 339.19 559.728C345.523 560.94 345.669 561.02 346.676 563.784C347.167 565.131 348.354 567.45 349.315 568.937C350.576 570.889 350.845 571.558 350.283 571.34C347.784 570.372 341.634 568.823 337.981 568.243C332.858 567.43 323.608 567.633 316.244 568.721C308.316 569.892 299.524 569.139 283.802 565.943C272.285 563.602 273.326 563.987 273.326 562.068C273.326 559.445 273.625 559.046 275.41 559.292C276.27 559.41 280.451 559.885 284.699 560.347ZM115.524 562.146C116.849 563.015 117.199 563.862 121.338 576.213C127.014 593.151 129.847 600.272 135.108 610.831C143.761 628.195 154.909 643.05 171.812 659.736L177.405 665.257L172.906 661.899C170.432 660.053 167.675 657.879 166.779 657.069C165.884 656.259 165.042 655.706 164.909 655.839C164.775 655.972 163.767 655.392 162.667 654.55C161.567 653.707 155.911 649.865 150.097 646.012C137.974 637.977 136.327 636.418 132.903 629.741C131.689 627.373 129.944 624.206 129.026 622.703C128.108 621.201 127.436 619.893 127.532 619.797C127.873 619.455 138.074 629.121 147.792 638.995C153.221 644.511 159.3 650.579 161.301 652.478C163.301 654.378 158.762 649.588 151.215 641.835C143.667 634.082 134.981 625.483 131.912 622.727C128.844 619.97 126.106 617.422 125.829 617.065C124.539 615.401 120.489 606.529 119.258 602.67C118.505 600.308 116.731 593.833 115.316 588.281C112.231 576.179 111.725 571.026 113.019 564.858C113.438 562.858 113.856 561.22 113.948 561.22C114.039 561.22 114.748 561.637 115.524 562.146ZM353.194 563.379C359.424 565.3 365.038 567.856 372.696 572.258L379.268 576.035L379.033 578.019C378.885 579.266 378.977 580.115 379.28 580.302C379.546 580.466 379.762 580.763 379.762 580.961C379.762 581.773 360.4 575.61 356.089 573.426C353.295 572.011 349.6 567.306 348.238 563.431C347.712 561.935 347.695 561.605 348.155 561.781C348.471 561.902 350.739 562.621 353.194 563.379ZM259.825 563.182C264.837 563.84 270.748 564.94 271.087 565.279C271.18 565.372 271.123 566.692 270.96 568.211L270.664 570.975L268.025 570.371C263.935 569.435 251.253 569.201 245.859 569.963C243.38 570.313 239.226 570.566 236.626 570.527C231.937 570.456 231.865 570.439 227.827 568.468C225.588 567.375 222.404 565.678 220.752 564.696L217.748 562.911L224.185 563.07C227.726 563.157 232.748 563.102 235.344 562.947C244.586 562.397 254.567 562.493 259.825 563.182ZM282.587 567.414C287.762 568.458 294.216 569.646 296.931 570.054C303.762 571.08 313.723 571.086 320.503 570.069C327.746 568.983 336.512 569.28 342.638 570.818C346.892 571.887 353.09 573.941 353.668 574.474C353.834 574.626 351.13 574.772 347.66 574.799C336.96 574.883 326.574 576.665 315.171 580.374C311.866 581.449 307.488 582.545 305.443 582.81L301.722 583.291L293.425 579.58C284.808 575.726 279.185 573.464 274.894 572.128L272.385 571.346L272.637 569.827C272.775 568.991 272.89 567.679 272.892 566.912C272.895 566.144 272.96 565.516 273.037 565.516C273.115 565.516 277.412 566.37 282.587 567.414ZM430.619 575.482C430.207 577.206 429.653 578.847 429.387 579.13C428.986 579.556 421.683 581.408 420.405 581.408C420.193 581.408 421.729 580.077 423.818 578.45C425.907 576.823 428.376 574.7 429.304 573.733C430.233 572.766 431.077 572.058 431.179 572.161C431.282 572.264 431.03 573.758 430.619 575.482ZM279.731 575.022C283.925 576.591 298.606 582.995 299.077 583.46C299.195 583.577 294.463 583.551 288.562 583.402C282.661 583.254 276.416 583.132 274.685 583.129L271.536 583.126L271.802 579.798C271.948 577.966 272.171 575.635 272.298 574.616C272.525 572.79 272.549 572.767 273.893 573.056C274.643 573.216 277.27 574.101 279.731 575.022ZM392.208 577.987C394.451 578.979 397.831 580.34 399.719 581.011L403.152 582.233L399.135 582.25C395.462 582.266 394.908 582.155 392.662 580.957C389.706 579.38 387.434 577.558 386.12 575.712L385.148 574.346L386.64 575.265C387.46 575.77 389.966 576.995 392.208 577.987ZM359.606 578.402C361.621 579.557 365.539 581.476 368.314 582.665C371.089 583.854 374.654 585.57 376.238 586.478C377.822 587.387 380.809 588.871 382.874 589.777C384.939 590.682 386.629 591.674 386.629 591.98C386.629 592.883 382.807 595.537 380.533 596.213C376.657 597.365 368.856 598.981 364.741 599.483C359.43 600.133 353.274 599.73 347.359 598.349C344.763 597.742 340.321 596.758 337.488 596.161C334.656 595.564 330.608 594.52 328.493 593.842C323.037 592.093 304.668 584.744 304.882 584.397C304.981 584.237 306.137 583.98 307.453 583.825C308.769 583.671 312.82 582.583 316.456 581.409C323.514 579.13 331.087 577.455 337.703 576.71C339.945 576.457 342.456 576.173 343.282 576.079C344.108 575.985 347.295 575.996 350.364 576.104L355.943 576.3L359.606 578.402ZM363.883 578.402C364.709 578.854 365.192 579.225 364.956 579.225C364.72 579.225 363.851 578.854 363.024 578.402C362.198 577.949 361.715 577.579 361.951 577.579C362.187 577.579 363.057 577.949 363.883 578.402ZM383.818 578.979C385.277 580.894 385.202 581.408 383.463 581.408C381.878 581.408 381.308 580.92 380.902 579.217C380.384 577.04 382.225 576.89 383.818 578.979ZM370.626 580.634C371.992 581.153 374.848 582.083 376.972 582.701C379.573 583.458 380.877 584.05 380.967 584.516C381.083 585.12 380.896 585.103 379.482 584.382C378.592 583.927 377.658 583.556 377.407 583.556C376.456 583.556 370.24 581.347 368.914 580.538C367.123 579.444 367.561 579.469 370.626 580.634ZM390.327 581.716C390.03 582.013 388.346 581 388.346 580.524C388.346 580.291 388.835 580.42 389.432 580.812C390.03 581.204 390.432 581.611 390.327 581.716ZM428.963 582.589C428.846 583.003 427.873 586.917 426.8 591.288C425.727 595.658 424.211 601.261 423.429 603.739L422.008 608.245L420.402 605.598C416.973 599.948 410.846 596.044 402.201 593.999C399.656 593.397 397.283 592.817 396.929 592.71C396.57 592.602 397.235 592.178 398.432 591.754C400.922 590.87 405.886 588.697 411.116 586.204C414.106 584.778 415.82 584.292 420.344 583.584C423.399 583.106 426.478 582.535 427.186 582.313C429.048 581.733 429.199 581.756 428.963 582.589ZM398.787 583.985C399.84 583.985 402.025 584.407 403.644 584.922L406.586 585.858L402.723 586.624C400.456 587.073 396.867 587.396 394.032 587.405L389.204 587.422V585.508V583.594L392.316 583.467C394.027 583.398 395.753 583.486 396.15 583.663C396.548 583.84 397.735 583.985 398.787 583.985ZM385.597 583.885C385.856 584.058 386.204 584.756 386.37 585.436C386.623 586.468 386.557 586.627 385.972 586.402C385.587 586.254 384.997 586.133 384.663 586.133C383.966 586.133 382.337 584.629 382.337 583.985C382.337 583.492 384.894 583.412 385.597 583.885ZM409.769 584.69C409.867 584.775 409.444 584.845 408.829 584.845C408.213 584.845 407.585 584.643 407.434 584.398C407.184 583.994 409.264 584.254 409.769 584.69ZM313.341 589.272C325.151 593.99 331.044 595.985 336.415 597.083C338.186 597.444 341.855 598.309 344.57 599.004C355.636 601.835 363.09 601.79 376.543 598.814C377.62 598.575 377.444 598.788 375.471 600.11C370.036 603.751 361.551 607.042 353.412 608.668C346.893 609.969 341.489 610.486 328.476 611.055C314.646 611.66 311.716 612.035 302.975 614.315C288.173 618.177 289.008 618.028 283.841 617.735C281.245 617.588 276.948 617.249 274.292 616.982L269.464 616.495L269.459 615.167C269.453 613.423 271.158 588.612 271.449 586.195L271.676 584.324L286.872 584.546L302.069 584.769L313.341 589.272ZM379.789 586.577C380.245 586.821 381.728 587.226 383.085 587.477C386.052 588.026 387.316 588.624 386.737 589.203C386.472 589.468 384.914 589.052 382.4 588.045C380.241 587.18 378.475 586.396 378.475 586.303C378.475 586.018 378.919 586.111 379.789 586.577ZM403.747 588.044C403.641 588.149 401.325 589.109 398.599 590.175L393.643 592.115L391.531 591.361C389.973 590.804 389.383 590.358 389.281 589.658C389.148 588.73 389.245 588.709 394.002 588.679C396.674 588.661 399.73 588.492 400.792 588.303C403.238 587.867 403.989 587.801 403.747 588.044ZM390.063 592.576C390.063 592.812 389.869 593.006 389.633 593.006C389.397 593.006 389.204 592.812 389.204 592.576C389.204 592.34 389.397 592.147 389.633 592.147C389.869 592.147 390.063 592.34 390.063 592.576ZM398.247 594.293C407.307 596.213 411.96 598.19 415.656 601.688C418.269 604.161 420.406 607.29 420.787 609.199C421.341 611.967 411.482 632.597 404.376 643.544L402.101 647.049L398.764 648.153C386.725 652.135 376.162 651.511 362.381 646.002C358.031 644.263 352.711 641.53 337.917 633.436L332.338 630.383L336.27 630.379C350.225 630.365 365.28 622.456 380.874 606.949C384.508 603.336 385.51 602.031 387.06 598.9C388.837 595.311 388.997 595.129 391.096 594.321C393.825 593.271 393.431 593.272 398.247 594.293ZM383.603 599.008C379.271 604.969 370.279 612.377 363.835 615.294C355.435 619.095 346.483 620.996 336.63 621.07C331.292 621.11 329.552 620.956 326.443 620.168C320.856 618.752 316.288 618.361 304.656 618.302C298.873 618.272 294.528 618.16 295 618.052C295.472 617.944 298.562 617.111 301.867 616.2C311.056 613.667 314.196 613.211 327.188 612.525C347.101 611.473 354.073 610.483 363.308 607.398C368.305 605.728 372.662 603.629 376.973 600.814C380.205 598.703 384.922 596.038 385.454 596.022C385.633 596.017 384.801 597.36 383.603 599.008ZM258.148 615.942C261.185 616.794 264.485 617.69 265.48 617.933C267.228 618.358 267.282 618.422 267.028 619.757C266.883 620.518 266.693 621.224 266.605 621.326C266.287 621.696 254.603 619.97 250.678 618.973C246.515 617.917 243.556 616.465 243.832 615.616C244.091 614.821 247.603 614.059 250.208 614.231C251.537 614.319 255.11 615.089 258.148 615.942ZM421.642 622.359C419.942 628.177 413.827 638.354 409.664 642.294C407.054 644.765 405.781 645.289 407.058 643.368C410.795 637.745 417.929 624.117 420.582 617.531L422.036 613.923L422.163 617.032C422.24 618.912 422.034 621.018 421.642 622.359ZM367.316 616.388C367.316 616.934 359.476 621.673 355.243 623.685C346.799 627.7 339.668 629.319 333.502 628.621C328.673 628.075 327.445 627.728 321.211 625.157C318.361 623.98 314.098 622.448 311.738 621.752L307.446 620.485L313.24 620.749C319.498 621.034 320.574 621.177 327.403 622.634C337.487 624.785 353.631 622.563 364.38 617.545C367.586 616.048 367.316 616.154 367.316 616.388ZM276.76 622.032C278.664 622.675 280.489 622.835 286.202 622.856C292.95 622.881 297.789 623.552 297.789 624.463C297.789 625.164 290.818 624.587 275.901 622.648C272.243 622.173 269.201 621.784 269.142 621.784C268.907 621.784 269.052 619.333 269.301 619.084C269.447 618.937 270.654 619.361 271.983 620.026C273.312 620.691 275.461 621.594 276.76 622.032ZM282.542 620.115C291.624 620.68 293.426 621.098 288.791 621.567C283.035 622.148 280.024 621.942 276.335 620.712C274.444 620.082 272.897 619.463 272.897 619.336C272.897 619.21 273.332 619.226 273.863 619.371C274.394 619.516 278.3 619.851 282.542 620.115ZM306.051 620.806C305.284 620.902 304.028 620.902 303.261 620.806C302.494 620.711 303.122 620.633 304.656 620.633C306.191 620.633 306.818 620.711 306.051 620.806ZM255.73 622.628C260.333 623.353 264.655 624.062 265.334 624.201L266.569 624.454L266.286 627.737C265.242 639.81 262.023 661.812 259.112 676.764C257.908 682.947 254.816 697.159 254.173 699.464C253.802 700.792 252.636 700.559 247.195 698.07C244.926 697.032 237.082 693.451 229.765 690.111C204.645 678.646 196.37 673.064 192.625 665.054C188.785 656.841 190.426 647.216 197.142 638.566C200.828 633.819 208.187 627.78 213.404 625.219C216.074 623.909 225.016 622.116 231.911 621.509C233.563 621.363 235.011 621.149 235.129 621.032C235.694 620.473 248.229 621.445 255.73 622.628ZM303.983 622.314L307.875 622.843L304.231 623.242C300.439 623.658 295.547 623.148 294.642 622.243C294.003 621.603 299.04 621.641 303.983 622.314ZM315.304 624.391C317.055 624.794 322.889 627.332 322.602 627.566C322.528 627.626 321.115 627.515 319.463 627.319C317.811 627.123 313.39 626.763 309.639 626.519C303.788 626.138 302.598 625.937 301.27 625.111L299.721 624.147L303.583 623.932C308.423 623.663 312.904 623.838 315.304 624.391ZM275.901 625.629C284.994 626.846 295.598 627.719 304.871 628.014C309.356 628.157 315.621 628.566 318.794 628.922L324.564 629.57L327.592 631.727C329.258 632.913 332.842 635.338 335.557 637.117C338.272 638.895 340.686 640.545 340.922 640.784C342.479 642.357 329.292 637.428 317.209 631.92C311.404 629.274 310.236 628.861 310.236 629.451C310.236 630.108 321.662 635.557 329.763 638.764C335.403 640.997 337.595 641.665 339.42 641.705C341.241 641.746 341.78 641.612 341.78 641.122C341.78 640.514 340.656 639.653 331.74 633.429C329.578 631.92 327.88 630.612 327.968 630.525C328.483 630.01 336.321 633.728 343.516 637.901C354.679 644.375 365.754 649.054 374.183 650.857C379.877 652.074 390.228 651.888 395.749 650.469C398.05 649.878 399.934 649.487 399.934 649.6C399.934 650.131 392.111 658.711 388.614 662.016C372.014 677.702 347.664 690.217 321.18 696.674C308.481 699.769 297.486 701.337 282.768 702.151C269.382 702.891 256.159 702.209 256.159 700.78C256.159 700.561 256.752 697.726 257.477 694.48C262.071 673.905 264.863 657.106 267.312 635.315C268.419 625.461 268.537 624.791 269.161 624.794C269.446 624.796 272.479 625.172 275.901 625.629ZM327.188 629.945C327.334 630.182 327.26 630.375 327.024 630.375C326.788 630.375 326.476 630.182 326.33 629.945C326.184 629.709 326.258 629.516 326.494 629.516C326.73 629.516 327.042 629.709 327.188 629.945ZM178.533 665.919C179.066 666.6 179.051 666.615 178.371 666.081C177.656 665.52 177.429 665.167 177.782 665.167C177.871 665.167 178.209 665.505 178.533 665.919ZM206.589 684.791C214.973 689.035 227.033 693.896 241.567 698.89C247.586 700.958 252.68 702.803 252.887 702.991C253.439 703.492 252.783 706.402 252.117 706.402C251.03 706.402 240.462 702.87 234.486 700.509C221.17 695.25 211.168 690.094 201.654 683.585C195.349 679.273 193.107 677.413 196.933 679.669C198.467 680.574 202.812 682.879 206.589 684.791Z" fill="black" fill-opacity="0.06"/>
</svg>
