<svg width="62" height="62" viewBox="0 0 62 62" fill="none" xmlns="http://www.w3.org/2000/svg">
<path d="M23.25 38.75C23.25 40.1767 22.0934 41.3333 20.6667 41.3333C19.2399 41.3333 18.0833 40.1767 18.0833 38.75C18.0833 37.3233 19.2399 36.1667 20.6667 36.1667C22.0934 36.1667 23.25 37.3233 23.25 38.75Z" fill="black"/>
<path d="M23.25 28.4167C23.25 29.8434 22.0934 31 20.6667 31C19.2399 31 18.0833 29.8434 18.0833 28.4167C18.0833 26.9899 19.2399 25.8333 20.6667 25.8333C22.0934 25.8333 23.25 26.9899 23.25 28.4167Z" fill="black"/>
<path d="M33.5833 38.75C33.5833 40.1767 32.4267 41.3333 31 41.3333C29.5733 41.3333 28.4167 40.1767 28.4167 38.75C28.4167 37.3233 29.5733 36.1667 31 36.1667C32.4267 36.1667 33.5833 37.3233 33.5833 38.75Z" fill="black"/>
<path d="M33.5833 28.4167C33.5833 29.8434 32.4267 31 31 31C29.5733 31 28.4167 29.8434 28.4167 28.4167C28.4167 26.9899 29.5733 25.8333 31 25.8333C32.4267 25.8333 33.5833 26.9899 33.5833 28.4167Z" fill="black"/>
<path d="M43.9167 28.4167C43.9167 29.8434 42.7601 31 41.3333 31C39.9066 31 38.75 29.8434 38.75 28.4167C38.75 26.9899 39.9066 25.8333 41.3333 25.8333C42.7601 25.8333 43.9167 26.9899 43.9167 28.4167Z" fill="black"/>
<path fill-rule="evenodd" clip-rule="evenodd" d="M31 12.2708C25.5319 12.2708 18.0612 12.7447 13.3985 13.0858C11.8639 13.1981 10.6548 14.3972 10.5302 15.9278C10.1706 20.3457 9.6875 27.2328 9.6875 32.2917C9.6875 37.3505 10.1706 44.2377 10.5302 48.6555C10.6548 50.1861 11.8639 51.3852 13.3985 51.4975C18.0612 51.8387 25.5319 52.3125 31 52.3125C36.4681 52.3125 43.9388 51.8387 48.6015 51.4975C50.1361 51.3852 51.3452 50.1861 51.4698 48.6555C51.8294 44.2377 52.3125 37.3505 52.3125 32.2917C52.3125 27.2328 51.8294 20.3457 51.4698 15.9278C51.3452 14.3972 50.1361 13.1981 48.6015 13.0858C43.9388 12.7447 36.4681 12.2708 31 12.2708ZM13.1157 9.22115C17.7806 8.87983 25.3765 8.39583 31 8.39583C36.6235 8.39583 44.2194 8.87983 48.8843 9.22115C52.321 9.47261 55.0522 12.176 55.332 15.6134C55.6919 20.0348 56.1875 27.0604 56.1875 32.2917C56.1875 37.523 55.6919 44.5486 55.332 48.9699C55.0522 52.4074 52.321 55.1107 48.8843 55.3622C44.2194 55.7035 36.6235 56.1875 31 56.1875C25.3765 56.1875 17.7806 55.7035 13.1157 55.3622C9.67897 55.1107 6.94783 52.4074 6.66799 48.9699C6.30806 44.5486 5.8125 37.523 5.8125 32.2917C5.8125 27.0604 6.30806 20.0348 6.66799 15.6134C6.94783 12.176 9.67897 9.47261 13.1157 9.22115Z" fill="black"/>
<path fill-rule="evenodd" clip-rule="evenodd" d="M23.25 5.8125C24.3201 5.8125 25.1875 6.67995 25.1875 7.75V14.2083C25.1875 15.2784 24.3201 16.1458 23.25 16.1458C22.1799 16.1458 21.3125 15.2784 21.3125 14.2083V7.75C21.3125 6.67995 22.1799 5.8125 23.25 5.8125Z" fill="black"/>
<path fill-rule="evenodd" clip-rule="evenodd" d="M38.75 5.8125C39.8201 5.8125 40.6875 6.67995 40.6875 7.75V14.2083C40.6875 15.2784 39.8201 16.1458 38.75 16.1458C37.6799 16.1458 36.8125 15.2784 36.8125 14.2083L36.8125 7.75C36.8125 6.67995 37.6799 5.8125 38.75 5.8125Z" fill="black"/>
</svg>
