<svg width="40" height="43" viewBox="0 0 62 65" fill="none" xmlns="http://www.w3.org/2000/svg">
<path fill-rule="evenodd" clip-rule="evenodd" d="M32.5257 8.28347C33.8803 6.92894 35.7174 6.16797 37.633 6.16797H48.2311C49.4502 6.16797 50.6192 6.65222 51.4812 7.5142L55.4874 11.5204C56.3494 12.3824 56.8337 13.5515 56.8337 14.7705V25.3686C56.8337 27.2842 56.0727 29.1214 54.7182 30.4759L29.4749 55.7191C26.6543 58.5398 22.0811 58.5398 19.2604 55.7191L7.28249 43.7413C4.46182 40.9206 4.46183 36.3474 7.28249 33.5267L32.5257 8.28347ZM37.633 10.1077C36.7623 10.1077 35.9272 10.4536 35.3115 11.0693L10.0683 36.3125C8.78616 37.5946 8.78616 39.6733 10.0683 40.9555L22.0462 52.9334C23.3283 54.2155 25.407 54.2155 26.6891 52.9334L51.9324 27.6901C52.5481 27.0744 52.894 26.2394 52.894 25.3686V14.7705C52.894 14.5963 52.8248 14.4293 52.7016 14.3062L48.6954 10.3C48.5723 10.1768 48.4053 10.1077 48.2311 10.1077H37.633Z" fill="black"/>
<path d="M44.358 21.2701C44.358 22.7207 43.1821 23.8966 41.7315 23.8966C40.2809 23.8966 39.105 22.7207 39.105 21.2701C39.105 19.8196 40.2809 18.6437 41.7315 18.6437C43.1821 18.6437 44.358 19.8196 44.358 21.2701Z" fill="black"/>
</svg>
