<svg viewBox="0 0 60 60" fill="none" xmlns="http://www.w3.org/2000/svg">
<path fill-rule="evenodd" clip-rule="evenodd" d="M7.03631 21.0196C7.61331 17.6529 10.5423 15.2564 13.9161 15.2564H46.0839C49.4577 15.2564 52.3867 17.6529 52.9637 21.0196C53.6009 24.7377 54.4716 30.2885 54.7763 34.5045C55.069 38.5546 55.0206 43.879 54.9317 47.5921C54.8452 51.2056 52.0054 54.1029 48.4193 54.3145C43.5706 54.6006 35.7752 55 30 55C24.2248 55 16.4294 54.6006 11.5807 54.3145C7.99457 54.1029 5.15483 51.2056 5.06832 47.5921C4.97942 43.879 4.93104 38.5546 5.22374 34.5045C5.52844 30.2885 6.3991 24.7377 7.03631 21.0196ZM13.9161 19.1026C12.3736 19.1026 11.0807 20.1904 10.8272 21.6693C10.1913 25.3797 9.34987 30.7693 9.05989 34.7817C8.78155 38.6331 8.82474 43.7983 8.91337 47.5001C8.95147 49.0913 10.1963 50.3799 11.8073 50.475C16.6538 50.761 24.3491 51.1539 30 51.1538C35.6509 51.1538 43.3463 50.761 48.1927 50.475C49.8037 50.3799 51.0485 49.0913 51.0866 47.5001C51.1753 43.7983 51.2184 38.6331 50.9401 34.7817C50.6501 30.7693 49.8087 25.3797 49.1728 21.6693C48.9193 20.1904 47.6264 19.1026 46.0839 19.1026H13.9161Z" fill="white"/>
<path d="M24.8718 27.4359C24.8718 28.852 23.7238 30 22.3077 30C20.8916 30 19.7436 28.852 19.7436 27.4359C19.7436 26.0198 20.8916 24.8718 22.3077 24.8718C23.7238 24.8718 24.8718 26.0198 24.8718 27.4359Z" fill="white"/>
<path d="M40.2564 27.4359C40.2564 28.852 39.1084 30 37.6923 30C36.2762 30 35.1282 28.852 35.1282 27.4359C35.1282 26.0198 36.2762 24.8718 37.6923 24.8718C39.1084 24.8718 40.2564 26.0198 40.2564 27.4359Z" fill="white"/>
<path fill-rule="evenodd" clip-rule="evenodd" d="M20.3846 12.0513C20.3846 8.15697 23.5416 5 27.4359 5H32.5641C36.4584 5 39.6154 8.15697 39.6154 12.0513V14.6154C39.6154 15.6775 38.7544 16.5385 37.6923 16.5385C36.6302 16.5385 35.7692 15.6775 35.7692 14.6154V12.0513C35.7692 10.2811 34.3342 8.84615 32.5641 8.84615H27.4359C25.6658 8.84615 24.2308 10.2811 24.2308 12.0513V14.6154C24.2308 15.6775 23.3698 16.5385 22.3077 16.5385C21.2456 16.5385 20.3846 15.6775 20.3846 14.6154V12.0513Z" fill="white"/>
</svg>
