<svg viewBox="0 0 60 60" fill="none" xmlns="http://www.w3.org/2000/svg">
<path fill-rule="evenodd" clip-rule="evenodd" d="M16.25 8.92857C14.4569 8.92857 11.9408 9.3564 10.2263 9.70176C10.0246 9.74241 9.86214 9.90105 9.82668 10.1282C9.48367 12.3248 8.97059 16.0801 8.97059 18.75C8.97059 21.4199 9.48367 25.1752 9.82668 27.3719C9.86214 27.599 10.0246 27.7576 10.2263 27.7982C11.9408 28.1436 14.4569 28.5714 16.25 28.5714C18.0431 28.5714 20.5592 28.1436 22.2737 27.7982C22.4754 27.7576 22.6379 27.599 22.6733 27.3719C23.0163 25.1752 23.5294 21.4199 23.5294 18.75C23.5294 16.0801 23.0163 12.3248 22.6733 10.1282C22.6379 9.90105 22.4754 9.74241 22.2737 9.70176C20.5592 9.3564 18.0431 8.92857 16.25 8.92857ZM9.43422 5.85216C11.1553 5.50547 14.0185 5 16.25 5C18.4815 5 21.3447 5.50547 23.0658 5.85216C24.9218 6.22603 26.3122 7.70204 26.5974 9.52832C26.9397 11.7207 27.5 15.7453 27.5 18.75C27.5 21.7547 26.9397 25.7793 26.5974 27.9717C26.3122 29.798 24.9218 31.274 23.0658 31.6478C21.3447 31.9945 18.4815 32.5 16.25 32.5C14.0185 32.5 11.1553 31.9945 9.43422 31.6478C7.57825 31.274 6.18782 29.798 5.90264 27.9717C5.56031 25.7793 5 21.7547 5 18.75C5 15.7453 5.56031 11.7207 5.90264 9.52832C6.18782 7.70204 7.57825 6.22603 9.43422 5.85216Z" fill="white"/>
<path fill-rule="evenodd" clip-rule="evenodd" d="M43.75 51.0714C41.9569 51.0714 39.4408 50.6436 37.7263 50.2982C37.5246 50.2576 37.3621 50.099 37.3267 49.8718C36.9837 47.6752 36.4706 43.9199 36.4706 41.25C36.4706 38.5801 36.9837 34.8248 37.3267 32.6282C37.3621 32.401 37.5246 32.2424 37.7263 32.2018C39.4408 31.8564 41.9569 31.4286 43.75 31.4286C45.5431 31.4286 48.0592 31.8564 49.7737 32.2018C49.9754 32.2424 50.1379 32.401 50.1733 32.6282C50.5163 34.8248 51.0294 38.5801 51.0294 41.25C51.0294 43.9199 50.5163 47.6752 50.1733 49.8718C50.1379 50.099 49.9754 50.2576 49.7737 50.2982C48.0592 50.6436 45.5431 51.0714 43.75 51.0714ZM36.9342 54.1478C38.6553 54.4945 41.5185 55 43.75 55C45.9815 55 48.8447 54.4945 50.5658 54.1478C52.4218 53.774 53.8122 52.298 54.0974 50.4717C54.4397 48.2793 55 44.2547 55 41.25C55 38.2453 54.4397 34.2207 54.0974 32.0283C53.8122 30.202 52.4218 28.726 50.5658 28.3522C48.8447 28.0055 45.9815 27.5 43.75 27.5C41.5185 27.5 38.6553 28.0055 36.9342 28.3522C35.0782 28.726 33.6878 30.202 33.4026 32.0283C33.0603 34.2207 32.5 38.2453 32.5 41.25C32.5 44.2547 33.0603 48.2793 33.4026 50.4717C33.6878 52.298 35.0782 53.774 36.9342 54.1478Z" fill="white"/>
<path fill-rule="evenodd" clip-rule="evenodd" d="M16.25 41.5385C14.3472 41.5385 11.656 41.9912 9.95789 42.3236C9.76853 42.3606 9.65603 42.4852 9.61937 42.6172C9.29388 43.7895 8.97059 45.2486 8.97059 46.25C8.97059 47.2514 9.29388 48.7105 9.61937 49.8828C9.65603 50.0148 9.76853 50.1394 9.95789 50.1764C11.656 50.5088 14.3472 50.9615 16.25 50.9615C18.1528 50.9615 20.844 50.5088 22.5421 50.1764C22.7315 50.1394 22.844 50.0148 22.8806 49.8828C23.2061 48.7105 23.5294 47.2514 23.5294 46.25C23.5294 45.2486 23.2061 43.7895 22.8806 42.6172C22.844 42.4852 22.7315 42.3606 22.5421 42.3236C20.844 41.9912 18.1528 41.5385 16.25 41.5385ZM9.20751 38.3579C10.9046 38.0257 13.9291 37.5 16.25 37.5C18.5709 37.5 21.5954 38.0257 23.2925 38.3579C24.8989 38.6723 26.2414 39.8617 26.7018 41.5197C27.0335 42.7143 27.5 44.6425 27.5 46.25C27.5 47.8575 27.0335 49.7857 26.7018 50.9803C26.2414 52.6383 24.8989 53.8277 23.2925 54.1421C21.5954 54.4743 18.5709 55 16.25 55C13.9291 55 10.9046 54.4743 9.20751 54.1421C7.60107 53.8277 6.25859 52.6383 5.79824 50.9803C5.46653 49.7857 5 47.8575 5 46.25C5 44.6425 5.46653 42.7143 5.79824 41.5197C6.25859 39.8617 7.60107 38.6723 9.20751 38.3579Z" fill="white"/>
<path fill-rule="evenodd" clip-rule="evenodd" d="M43.75 18.4615C41.8472 18.4615 39.156 18.0088 37.4579 17.6764C37.2685 17.6394 37.156 17.5148 37.1194 17.3828C36.7939 16.2105 36.4706 14.7514 36.4706 13.75C36.4706 12.7486 36.7939 11.2895 37.1194 10.1172C37.156 9.9852 37.2685 9.86063 37.4579 9.82357C39.156 9.49118 41.8472 9.03846 43.75 9.03846C45.6528 9.03846 48.344 9.49118 50.0421 9.82357C50.2315 9.86063 50.344 9.9852 50.3806 10.1172C50.7061 11.2895 51.0294 12.7486 51.0294 13.75C51.0294 14.7514 50.7061 16.2105 50.3806 17.3828C50.344 17.5148 50.2315 17.6394 50.0421 17.6764C48.344 18.0088 45.6528 18.4615 43.75 18.4615ZM36.7075 21.6421C38.4046 21.9743 41.4291 22.5 43.75 22.5C46.0709 22.5 49.0954 21.9743 50.7925 21.6421C52.3989 21.3277 53.7414 20.1383 54.2018 18.4803C54.5335 17.2857 55 15.3575 55 13.75C55 12.1425 54.5335 10.2143 54.2018 9.01966C53.7414 7.36166 52.3989 6.17233 50.7925 5.85788C49.0954 5.52568 46.0709 5 43.75 5C41.4291 5 38.4046 5.52568 36.7075 5.85788C35.1011 6.17233 33.7586 7.36166 33.2982 9.01966C32.9665 10.2143 32.5 12.1425 32.5 13.75C32.5 15.3575 32.9665 17.2857 33.2982 18.4803C33.7586 20.1383 35.1011 21.3277 36.7075 21.6421Z" fill="white"/>
</svg>
