<svg width="60" height="60" viewBox="0 0 60 60" fill="none" xmlns="http://www.w3.org/2000/svg">
<path fill-rule="evenodd" clip-rule="evenodd" d="M30 8.84615C24.577 8.84615 17.1654 9.34382 12.5374 9.70237C11.0154 9.82028 9.82028 11.0154 9.70237 12.5374C9.34382 17.1654 8.84615 24.577 8.84615 30C8.84615 35.423 9.34382 42.8346 9.70237 47.4626C9.82028 48.9846 11.0154 50.1797 12.5374 50.2976C17.1654 50.6562 24.577 51.1538 30 51.1538C35.423 51.1538 42.8346 50.6562 47.4626 50.2976C48.9846 50.1797 50.1797 48.9846 50.2976 47.4626C50.6562 42.8346 51.1538 35.423 51.1538 30C51.1538 24.577 50.6562 17.1654 50.2976 12.5374C50.1797 11.0154 48.9846 9.82028 47.4626 9.70237C42.8346 9.34382 35.423 8.84615 30 8.84615ZM12.2403 5.8677C16.8705 5.50899 24.4137 5 30 5C35.5863 5 43.1295 5.50899 47.7597 5.8677C51.1715 6.13202 53.868 8.82853 54.1323 12.2403C54.491 16.8705 55 24.4137 55 30C55 35.5863 54.491 43.1295 54.1323 47.7597C53.868 51.1715 51.1715 53.868 47.7597 54.1323C43.1295 54.491 35.5863 55 30 55C24.4137 55 16.8705 54.491 12.2403 54.1323C8.82852 53.868 6.13202 51.1715 5.8677 47.7597C5.50899 43.1295 5 35.5863 5 30C5 24.4137 5.50899 16.8705 5.8677 12.2403C6.13202 8.82852 8.82853 6.13202 12.2403 5.8677Z" fill="white"/>
<path fill-rule="evenodd" clip-rule="evenodd" d="M19.7436 30.641C20.8057 30.641 21.6667 31.502 21.6667 32.5641V40.2564C21.6667 41.3185 20.8057 42.1795 19.7436 42.1795C18.6815 42.1795 17.8205 41.3185 17.8205 40.2564L17.8205 32.5641C17.8205 31.502 18.6815 30.641 19.7436 30.641Z" fill="white"/>
<path fill-rule="evenodd" clip-rule="evenodd" d="M30 22.9487C31.0621 22.9487 31.9231 23.8097 31.9231 24.8718V40.2564C31.9231 41.3185 31.0621 42.1795 30 42.1795C28.9379 42.1795 28.0769 41.3185 28.0769 40.2564V24.8718C28.0769 23.8097 28.9379 22.9487 30 22.9487Z" fill="white"/>
<path fill-rule="evenodd" clip-rule="evenodd" d="M40.2564 15.2564C41.3185 15.2564 42.1795 16.1174 42.1795 17.1795V40.2564C42.1795 41.3185 41.3185 42.1795 40.2564 42.1795C39.1943 42.1795 38.3333 41.3185 38.3333 40.2564V17.1795C38.3333 16.1174 39.1943 15.2564 40.2564 15.2564Z" fill="white"/>
</svg>
