<svg viewBox="0 0 60 60" fill="none" xmlns="http://www.w3.org/2000/svg">
<path fill-rule="evenodd" clip-rule="evenodd" d="M14.5833 16.5385C12.8051 16.5385 11.3636 17.9734 11.3636 19.7436V47.9487C11.3636 49.7189 12.8051 51.1538 14.5833 51.1538H35.1894C36.9676 51.1538 38.4091 49.7189 38.4091 47.9487V28.278C38.4091 27.428 38.0699 26.6127 37.4661 26.0117L28.8928 17.4772C28.289 16.8761 27.4701 16.5385 26.6162 16.5385H14.5833ZM7.5 19.7436C7.5 15.8493 10.6713 12.6923 14.5833 12.6923H26.6162C28.4948 12.6923 30.2965 13.4352 31.6248 14.7576L40.1981 23.292C41.5265 24.6144 42.2727 26.4079 42.2727 28.278V47.9487C42.2727 51.843 39.1014 55 35.1894 55H14.5833C10.6713 55 7.5 51.843 7.5 47.9487V19.7436Z" fill="white"/>
<path fill-rule="evenodd" clip-rule="evenodd" d="M17.803 6.92308C17.803 5.86099 18.6679 5 19.7348 5H30.4798C32.3584 5 34.1601 5.7429 35.4885 7.06527L47.9253 19.4459C49.2537 20.7682 50 22.5617 50 24.4319V42.8205C50 43.8826 49.1351 44.7436 48.0682 44.7436C47.0013 44.7436 46.1364 43.8826 46.1364 42.8205V24.4319C46.1364 23.5818 45.7971 22.7666 45.1933 22.1655L32.7565 9.78491C32.1527 9.18384 31.3337 8.84615 30.4798 8.84615H19.7348C18.6679 8.84615 17.803 7.98516 17.803 6.92308Z" fill="white"/>
</svg>
