<svg viewBox="0 0 60 60" fill="none" xmlns="http://www.w3.org/2000/svg">
<path fill-rule="evenodd" clip-rule="evenodd" d="M30 8.84615C18.3171 8.84615 8.84615 18.3171 8.84615 30C8.84615 41.6829 18.3171 51.1538 30 51.1538C41.6829 51.1538 51.1538 41.6829 51.1538 30C51.1538 18.3171 41.6829 8.84615 30 8.84615ZM5 30C5 16.1929 16.1929 5 30 5C43.8071 5 55 16.1929 55 30C55 43.8071 43.8071 55 30 55C16.1929 55 5 43.8071 5 30Z" fill="white"/>
<path fill-rule="evenodd" clip-rule="evenodd" d="M20.7692 36.5385C21.4065 35.6888 22.6119 35.5166 23.4615 36.1538C24.6183 37.0214 25.5665 37.5431 26.5245 37.8624C27.4825 38.1818 28.554 38.3333 30 38.3333C31.446 38.3333 32.5175 38.1818 33.4755 37.8624C34.4336 37.5431 35.3817 37.0214 36.5385 36.1538C37.3881 35.5166 38.5935 35.6888 39.2308 36.5385C39.868 37.3881 39.6958 38.5935 38.8462 39.2308C37.4697 40.2631 36.155 41.0235 34.6918 41.5112C33.2286 41.9989 31.7206 42.1795 30 42.1795C28.2794 42.1795 26.7714 41.9989 25.3082 41.5112C23.845 41.0235 22.5303 40.2631 21.1538 39.2308C20.3042 38.5935 20.132 37.3881 20.7692 36.5385Z" fill="white"/>
<path d="M24.8718 22.3077C24.8718 23.7238 23.7238 24.8718 22.3077 24.8718C20.8916 24.8718 19.7436 23.7238 19.7436 22.3077C19.7436 20.8916 20.8916 19.7436 22.3077 19.7436C23.7238 19.7436 24.8718 20.8916 24.8718 22.3077Z" fill="white"/>
<path d="M40.2564 22.3077C40.2564 23.7238 39.1084 24.8718 37.6923 24.8718C36.2762 24.8718 35.1282 23.7238 35.1282 22.3077C35.1282 20.8916 36.2762 19.7436 37.6923 19.7436C39.1084 19.7436 40.2564 20.8916 40.2564 22.3077Z" fill="white"/>
</svg>
