<svg width="60" height="60" viewBox="0 0 60 60" fill="none" xmlns="http://www.w3.org/2000/svg">
<path fill-rule="evenodd" clip-rule="evenodd" d="M30 8.84615C18.3171 8.84615 8.84615 18.3171 8.84615 30C8.84615 41.6829 18.3171 51.1539 30 51.1539C41.6829 51.1539 51.1539 41.6829 51.1539 30C51.1539 18.3171 41.6829 8.84615 30 8.84615ZM5 30C5 16.1929 16.1929 5 30 5C43.8071 5 55 16.1929 55 30C55 43.8071 43.8071 55 30 55C16.1929 55 5 43.8071 5 30Z" fill="white"/>
<path fill-rule="evenodd" clip-rule="evenodd" d="M30 40.8974C31.0621 40.8974 31.9231 40.0364 31.9231 38.9744V28.7179C31.9231 27.6559 31.0621 26.7949 30 26.7949C28.9379 26.7949 28.0769 27.6559 28.0769 28.7179V38.9744C28.0769 40.0364 28.9379 40.8974 30 40.8974Z" fill="white"/>
<path d="M32.5641 21.0256C32.5641 19.6095 31.4161 18.4615 30 18.4615C28.5839 18.4615 27.4359 19.6095 27.4359 21.0256C27.4359 22.4418 28.5839 23.5897 30 23.5897C31.4161 23.5897 32.5641 22.4418 32.5641 21.0256Z" fill="white"/>
</svg>
