<svg width="60" height="60" viewBox="0 0 60 60" fill="none" xmlns="http://www.w3.org/2000/svg">
<path fill-rule="evenodd" clip-rule="evenodd" d="M31.4762 7.04726C32.787 5.73642 34.5649 5 36.4187 5H46.675C47.8547 5 48.986 5.46863 49.8202 6.3028L53.6972 10.1798C54.5314 11.014 55 12.1453 55 13.325V23.5813C55 25.4351 54.2636 27.213 52.9527 28.5238L28.5238 52.9527C25.7941 55.6824 21.3684 55.6824 18.6388 52.9527L7.04726 41.3612C4.31758 38.6316 4.31758 34.2059 7.04726 31.4762L31.4762 7.04726ZM36.4187 8.81261C35.5761 8.81261 34.768 9.14735 34.1721 9.74318L9.74318 34.1721C8.50242 35.4129 8.50242 37.4246 9.74318 38.6653L21.3347 50.2568C22.5754 51.4976 24.5871 51.4976 25.8279 50.2568L50.2568 25.8279C50.8527 25.2321 51.1874 24.4239 51.1874 23.5813V13.325C51.1874 13.1565 51.1204 12.9949 51.0013 12.8757L47.1243 8.99872C47.0051 8.87956 46.8435 8.81261 46.675 8.81261H36.4187Z" fill="white"/>
<path d="M42.9267 19.615C42.9267 21.0188 41.7888 22.1567 40.385 22.1567C38.9812 22.1567 37.8433 21.0188 37.8433 19.615C37.8433 18.2112 38.9812 17.0733 40.385 17.0733C41.7888 17.0733 42.9267 18.2112 42.9267 19.615Z" fill="white"/>
</svg>
