<svg viewBox="0 0 60 60" fill="none" xmlns="http://www.w3.org/2000/svg">
<path fill-rule="evenodd" clip-rule="evenodd" d="M30 8.84615C22.4458 8.84615 16.2327 14.9031 16.3911 22.2668C16.4343 24.272 17.1883 26.5736 18.1664 28.6998C19.1298 30.7938 20.233 32.5535 20.8176 33.4327C21.1801 33.9778 21.4979 34.5849 21.7238 35.2554L23.625 40.8974H36.3751L38.2763 35.2554C38.5022 34.5849 38.82 33.9778 39.1825 33.4327C39.7671 32.5535 40.8703 30.7939 41.8336 28.6999C42.8117 26.5737 43.5657 24.272 43.6089 22.2668C43.7672 14.9031 37.5541 8.84615 30 8.84615ZM35.8322 44.7436H24.1679V45.3846C24.1679 48.5709 26.779 51.1539 30.0001 51.1539C33.221 51.1539 35.8322 48.5707 35.8322 45.3843V44.7436ZM20.2797 43.1326L18.0352 36.4717C17.9327 36.1673 17.7776 35.8597 17.5692 35.5463C16.9218 34.5726 15.7034 32.6315 14.6275 30.293C13.5665 27.9866 12.5636 25.1237 12.5039 22.3486C12.2968 12.7227 20.3754 5 30 5C39.6247 5 47.7031 12.7227 47.4961 22.3486C47.4364 25.1237 46.4335 27.9866 45.3725 30.293C44.2966 32.6316 43.0783 34.5726 42.4309 35.5463C42.2225 35.8597 42.0674 36.1673 41.9649 36.4717L39.7204 43.1326V45.3843C39.7204 50.6946 35.3685 55 30.0001 55C24.6317 55 20.2797 50.695 20.2797 45.3846V43.1326Z" fill="white"/>
</svg>
