<svg viewBox="0 0 60 60" fill="none" xmlns="http://www.w3.org/2000/svg">
<path fill-rule="evenodd" clip-rule="evenodd" d="M30 8.84615C24.5456 8.84615 17.0804 9.34426 12.4585 9.69944C10.9566 9.81486 9.77509 10.9786 9.63856 12.468C9.28696 16.3037 8.84615 21.9615 8.84615 26.1538C8.84615 30.3462 9.28696 36.004 9.63856 39.8397C9.77509 41.3291 10.9566 42.4928 12.4585 42.6082C17.0804 42.9634 24.5456 43.4615 30 43.4615C35.4544 43.4615 42.9196 42.9634 47.5415 42.6082C49.0434 42.4928 50.2249 41.3291 50.3614 39.8397C50.713 36.004 51.1538 30.3462 51.1538 26.1538C51.1538 21.9615 50.713 16.3037 50.3614 12.468C50.2249 10.9786 49.0434 9.81486 47.5415 9.69944C42.9196 9.34426 35.4544 8.84615 30 8.84615ZM12.1638 5.86459C16.7875 5.50928 24.3834 5 30 5C35.6166 5 43.2125 5.50928 47.8362 5.8646C51.1977 6.12292 53.8828 8.74877 54.1915 12.1169C54.5438 15.9596 55 21.7702 55 26.1538C55 30.5375 54.5438 36.3481 54.1915 40.1908C53.8828 43.5589 51.1977 46.1848 47.8362 46.4431C43.2125 46.7984 35.6166 47.3077 30 47.3077C24.3834 47.3077 16.7875 46.7984 12.1638 46.4431C8.80226 46.1848 6.1172 43.5589 5.80847 40.1908C5.45622 36.3481 5 30.5375 5 26.1538C5 21.7702 5.45622 15.9596 5.80847 12.1169C6.1172 8.74877 8.80226 6.12292 12.1638 5.86459Z" fill="white"/>
<path fill-rule="evenodd" clip-rule="evenodd" d="M41.6162 18.3838C42.3672 19.1348 42.3672 20.3524 41.6162 21.1034L33.9239 28.7957C33.1729 29.5467 31.9553 29.5467 31.2043 28.7957L27.4359 25.0273L21.1034 31.3598C20.3524 32.1108 19.1348 32.1108 18.3838 31.3598C17.6328 30.6088 17.6328 29.3912 18.3838 28.6402L26.0761 20.9479C26.8271 20.1969 28.0447 20.1969 28.7957 20.9479L32.5641 24.7163L38.8966 18.3838C39.6476 17.6328 40.8652 17.6328 41.6162 18.3838Z" fill="white"/>
<path fill-rule="evenodd" clip-rule="evenodd" d="M17.8205 53.0769C17.8205 52.0148 18.6815 51.1538 19.7436 51.1538H40.2564C41.3185 51.1538 42.1795 52.0148 42.1795 53.0769C42.1795 54.139 41.3185 55 40.2564 55H19.7436C18.6815 55 17.8205 54.139 17.8205 53.0769Z" fill="white"/>
</svg>
