<svg viewBox="0 0 60 60" fill="none" xmlns="http://www.w3.org/2000/svg">
<path fill-rule="evenodd" clip-rule="evenodd" d="M51.2153 9.58978C51.4115 9.08544 50.9146 8.58855 50.4102 8.78468L9.12831 24.8388C8.60856 25.0409 8.59694 25.7721 9.11001 25.9906L24.9593 32.7413C25.994 33.182 26.818 34.006 27.2587 35.0407L34.0094 50.89C34.2279 51.4031 34.9591 51.3914 35.1612 50.8717L51.2153 9.58978ZM49.0577 5.30666C52.588 3.93377 56.0662 7.41205 54.6933 10.9423L38.6393 52.2243C37.2244 55.8625 32.1057 55.9438 30.576 52.3523L23.8254 36.5031C23.7625 36.3552 23.6448 36.2375 23.4969 36.1746L7.64768 29.424C4.05621 27.8942 4.1375 22.7756 7.77575 21.3607L49.0577 5.30666Z" fill="white"/>
</svg>
