<svg width="60" height="60" viewBox="0 0 60 60" fill="none" xmlns="http://www.w3.org/2000/svg">
<path fill-rule="evenodd" clip-rule="evenodd" d="M51.1538 16.25C51.1538 14.5208 50.7401 12.1038 50.3883 10.3881C50.3451 10.1775 50.1685 9.99477 49.9005 9.97344C45.963 9.66008 36.5441 8.97059 30 8.97059C23.4559 8.97059 14.037 9.66008 10.0995 9.97344C9.8315 9.99477 9.65489 10.1775 9.6117 10.3881C9.25994 12.1038 8.84615 14.5208 8.84615 16.25C8.84615 17.9792 9.25994 20.3962 9.6117 22.1119C9.65489 22.3225 9.8315 22.5052 10.0995 22.5266C14.037 22.8399 23.4558 23.5294 30 23.5294C36.5441 23.5294 45.963 22.8399 49.9005 22.5266C50.1685 22.5052 50.3451 22.3225 50.3883 22.1119C50.7401 20.3962 51.1538 17.9792 51.1538 16.25ZM54.1511 9.56594C54.5052 11.2929 55 14.0674 55 16.25C55 18.4326 54.5052 21.2071 54.1511 22.9341C53.7421 24.9291 52.1056 26.3334 50.1961 26.4854C46.2692 26.7979 36.7118 27.5 30 27.5C23.2882 27.5 13.7308 26.7979 9.80387 26.4854C7.89439 26.3334 6.25794 24.9291 5.8489 22.9341C5.49483 21.2071 5 18.4326 5 16.25C5 14.0674 5.49483 11.2929 5.8489 9.56594C6.25794 7.57088 7.89439 6.16656 9.80387 6.0146C13.7308 5.70208 23.2882 5 30 5C36.7118 5 46.2692 5.70208 50.1961 6.0146C52.1056 6.16657 53.7421 7.57088 54.1511 9.56594Z" fill="white"/>
<path fill-rule="evenodd" clip-rule="evenodd" d="M51.1538 43.75C51.1538 42.0208 50.7401 39.6038 50.3883 37.8881C50.3451 37.6775 50.1685 37.4948 49.9005 37.4734C45.963 37.1601 36.5441 36.4706 30 36.4706C23.4558 36.4706 14.037 37.1601 10.0995 37.4734C9.8315 37.4948 9.65489 37.6775 9.6117 37.8881C9.25994 39.6038 8.84615 42.0208 8.84615 43.75C8.84615 45.4792 9.25994 47.8962 9.6117 49.6119C9.65489 49.8225 9.8315 50.0052 10.0995 50.0266C14.037 50.3399 23.4558 51.0294 30 51.0294C36.5441 51.0294 45.963 50.3399 49.9005 50.0266C50.1685 50.0052 50.3451 49.8225 50.3883 49.6119C50.7401 47.8962 51.1538 45.4792 51.1538 43.75ZM54.1511 37.0659C54.5052 38.7929 55 41.5674 55 43.75C55 45.9326 54.5052 48.7071 54.1511 50.4341C53.7421 52.4291 52.1056 53.8334 50.1961 53.9854C46.2692 54.2979 36.7118 55 30 55C23.2882 55 13.7308 54.2979 9.80387 53.9854C7.89438 53.8334 6.25794 52.4291 5.8489 50.4341C5.49483 48.7071 4.99999 45.9326 4.99999 43.75C4.99999 41.5674 5.49483 38.7929 5.8489 37.0659C6.25794 35.0709 7.89439 33.6666 9.80387 33.5146C13.7308 33.2021 23.2882 32.5 30 32.5C36.7118 32.5 46.2692 33.2021 50.1961 33.5146C52.1056 33.6666 53.7421 35.0709 54.1511 37.0659Z" fill="white"/>
</svg>
