<svg viewBox="0 0 60 60" fill="none" xmlns="http://www.w3.org/2000/svg">
<path fill-rule="evenodd" clip-rule="evenodd" d="M30 9.23358C25.3679 9.23358 21.6129 12.9235 21.6129 17.4753C21.6129 22.0271 25.3679 25.7171 30 25.7171C34.6321 25.7171 38.3871 22.0271 38.3871 17.4753C38.3871 12.9235 34.6321 9.23358 30 9.23358ZM17.7419 17.4753C17.7419 10.8227 23.2301 5.42969 30 5.42969C36.7699 5.42969 42.2581 10.8227 42.2581 17.4753C42.2581 24.128 36.7699 29.521 30 29.521C23.2301 29.521 17.7419 24.128 17.7419 17.4753Z" fill="white"/>
<path fill-rule="evenodd" clip-rule="evenodd" d="M23.6654 38.3967C18.2561 38.3967 13.871 42.7059 13.871 48.0215C13.871 48.3006 13.9229 48.4976 13.9773 48.6123C14.0232 48.7092 14.0626 48.7367 14.0955 48.7543C15.5997 49.5586 19.817 51.0763 30 51.0763C40.183 51.0763 44.4003 49.5586 45.9045 48.7543C45.9374 48.7367 45.9768 48.7092 46.0227 48.6123C46.0771 48.4976 46.129 48.3006 46.129 48.0215C46.129 42.7059 41.7439 38.3967 36.3346 38.3967H23.6654ZM10 48.0215C10 40.605 16.1182 34.5928 23.6654 34.5928H36.3346C43.8818 34.5928 50 40.605 50 48.0215C50 49.3829 49.4984 51.1631 47.7547 52.0955C45.4449 53.3306 40.4897 54.8802 30 54.8802C19.5104 54.8802 14.5551 53.3306 12.2453 52.0955C10.5016 51.1631 10 49.3829 10 48.0215Z" fill="white"/>
</svg>
