<svg viewBox="0 0 383 105" fill="none" xmlns="http://www.w3.org/2000/svg">
<g clip-path="url(#clip0_534_3205)">
<path d="M86.5754 2H8.25215C4.2469 2 1 5.26245 1 9.28689V98.187C1 102.211 4.2469 105.474 8.25215 105.474H86.5754C90.5806 105.474 93.8275 102.211 93.8275 98.187V9.28689C93.8275 5.26245 90.5806 2 86.5754 2Z" fill="black"/>
<path d="M15.5052 61.5688V16.5742H29.1764V61.5688C29.1764 73.3876 35.1954 79.2977 47.2328 79.2977C59.2703 79.2977 65.2892 73.3884 65.2892 61.5688V16.5742H78.9605V61.5688C78.9605 81.336 68.3846 91.2196 47.2323 91.2196C26.08 91.2196 15.5052 81.336 15.5052 61.5688Z" fill="white"/>
<path d="M123.144 37.5548L123.144 57.0719C123.144 59.3715 123.658 61.0525 124.687 62.1149C125.715 63.1773 127.33 63.7085 129.532 63.7085C131.907 63.7085 133.573 63.1773 134.529 62.1149C135.485 61.0524 135.963 59.3715 135.963 57.0719V37.5548H142.785V57.0719C142.785 60.9723 141.677 64.0142 139.461 66.1973C137.245 68.3804 133.935 69.472 129.532 69.472C125.042 69.472 121.717 68.3804 119.559 66.1973C117.401 64.0142 116.322 60.9722 116.322 57.0719V37.5548H123.144ZM152.606 37.5548L157.516 58.7747H157.603L162.992 37.5548H169.379L174.681 59.0367H174.768L179.852 37.5548H186.544L178.201 68.7297H171.422L166.164 47.5098H166.077L160.906 68.7297H153.997L145.784 37.5548H152.606ZM196.364 37.5548L196.364 57.0719C196.364 59.3715 196.879 61.0525 197.907 62.1149C198.935 63.1773 200.551 63.7085 202.752 63.7085C205.128 63.7085 206.793 63.1773 207.749 62.1149C208.705 61.0524 209.183 59.3715 209.183 57.0719V37.5548H216.006V57.0719C216.006 60.9723 214.898 64.0142 212.681 66.1973C210.465 68.3804 207.155 69.472 202.752 69.472C198.262 69.472 194.938 68.3804 192.779 66.1973C190.621 64.0142 189.542 60.9722 189.542 57.0719V37.5548H196.364ZM232.562 36.8125C236.357 36.8125 239.377 37.6858 241.622 39.4323C243.867 41.1787 244.99 43.653 244.99 46.8549H238.385C238.298 45.283 237.769 44.1042 236.798 43.3182C235.828 42.5323 234.329 42.1393 232.301 42.1393C230.881 42.1393 229.737 42.4523 228.868 43.0781C227.999 43.7039 227.564 44.5698 227.564 45.676C227.564 46.5784 227.832 47.2333 228.368 47.6408C228.904 48.0483 229.665 48.4121 230.65 48.7323C231.635 49.0525 233.358 49.5182 235.821 50.1295C238.399 50.7699 240.383 51.4685 241.774 52.2253C243.165 52.9821 244.222 53.95 244.946 55.1289C245.67 56.3077 246.033 57.7559 246.033 59.4733C246.033 61.4526 245.511 63.2136 244.468 64.7564C243.425 66.2992 241.904 67.4707 239.905 68.2712C237.907 69.0718 235.647 69.4719 233.127 69.4719C229.274 69.4719 226.109 68.5041 223.632 66.5684C221.155 64.6327 219.917 61.9764 219.917 58.6V58.3817H226.522C226.522 60.2155 227.144 61.6345 228.39 62.6388C229.636 63.643 231.287 64.1451 233.344 64.1451C235.169 64.1451 236.639 63.8177 237.754 63.1627C238.87 62.5078 239.427 61.5399 239.427 60.2592C239.427 59.4151 239.123 58.702 238.515 58.1197C237.907 57.5375 237.095 57.0646 236.081 56.7007C235.068 56.3368 233.358 55.8784 230.954 55.3253C228.173 54.6267 226.145 53.8845 224.87 53.0986C223.596 52.3126 222.625 51.3594 221.959 50.2387C221.293 49.118 220.959 47.7717 220.959 46.1999C220.959 44.2496 221.517 42.5468 222.632 41.0914C223.748 39.636 225.204 38.559 227 37.8604C228.796 37.1618 230.65 36.8125 232.562 36.8125ZM273.061 37.5548V43.3182H263.762V68.7297H256.94V43.3182H247.64V37.5548H273.061ZM283.316 37.5548L283.316 57.0719C283.316 59.3715 283.83 61.0525 284.859 62.1149C285.887 63.1773 287.502 63.7085 289.704 63.7085C292.079 63.7085 293.745 63.1773 294.701 62.1149C295.657 61.0524 296.135 59.3715 296.135 57.0719V37.5548H302.957V57.0719C302.957 60.9723 301.849 64.0142 299.633 66.1973C297.417 68.3804 294.107 69.472 289.704 69.472C285.214 69.472 281.89 68.3804 279.731 66.1973C277.573 64.0142 276.494 60.9722 276.494 57.0719V37.5548H283.316ZM322.121 37.5548C326.524 37.5548 329.986 38.9229 332.506 41.6591C335.027 44.3953 336.287 48.1648 336.287 52.9676C336.287 57.9451 335.019 61.8167 332.485 64.5818C329.95 67.3469 326.553 68.7297 322.295 68.7297H308.824V37.5548H322.121ZM321.686 62.9663C324.149 62.9663 326.061 62.1512 327.422 60.5212C328.784 58.8911 329.465 56.5771 329.465 53.5789C329.465 50.1441 328.733 47.5753 327.27 45.8725C325.807 44.1696 323.555 43.3182 320.513 43.3182H315.646V62.9663H321.686ZM347.846 37.5548V68.7297H341.023V37.5548H347.846ZM367.748 36.8125C372.325 36.8125 376.011 38.3407 378.807 41.3971C381.602 44.4535 383 48.4123 383 53.2732C383 58.018 381.595 61.904 378.785 64.9311C375.975 67.9582 372.296 69.472 367.748 69.472C363.171 69.472 359.484 67.9583 356.689 64.9311C353.893 61.9039 352.495 58.018 352.495 53.2732C352.495 48.4411 353.9 44.4897 356.71 41.4189C359.52 38.3481 363.199 36.8125 367.748 36.8125ZM359.318 53.2732C359.318 56.4169 360.056 58.9419 361.534 60.8487C363.011 62.7554 365.082 63.7085 367.748 63.7085C370.355 63.7085 372.412 62.7698 373.918 60.8923C375.425 59.0148 376.178 56.475 376.178 53.2732C376.178 49.9258 375.432 47.3059 373.94 45.414C372.448 43.5221 370.369 42.576 367.704 42.576C365.097 42.576 363.047 43.522 361.555 45.414C360.064 47.306 359.318 49.9257 359.318 53.2732Z" fill="black"/>
</g>
<defs>
<clipPath id="clip0_534_3205">
<rect width="383" height="105" fill="white"/>
</clipPath>
</defs>
</svg>
